<?xml version="1.0" encoding="UTF-8" standalone="no"?>
<!-- Created with Inkscape (http://www.inkscape.org/) -->

<svg
   width="75mm"
   height="75mm"
   viewBox="0 0 75 75"
   version="1.1"
   id="svg5"
   inkscape:version="1.1 (c68e22c387, 2021-05-23)"
   sodipodi:docname="icon-email.svg"
   xmlns:inkscape="http://www.inkscape.org/namespaces/inkscape"
   xmlns:sodipodi="http://sodipodi.sourceforge.net/DTD/sodipodi-0.dtd"
   xmlns="http://www.w3.org/2000/svg"
   xmlns:svg="http://www.w3.org/2000/svg">
  <sodipodi:namedview
     id="namedview7"
     pagecolor="#ffffff"
     bordercolor="#666666"
     borderopacity="1.0"
     inkscape:pageshadow="2"
     inkscape:pageopacity="0.0"
     inkscape:pagecheckerboard="0"
     inkscape:document-units="mm"
     showgrid="false"
     inkscape:zoom="1.5785915"
     inkscape:cx="77.600825"
     inkscape:cy="136.5141"
     inkscape:window-width="1920"
     inkscape:window-height="1009"
     inkscape:window-x="-8"
     inkscape:window-y="-8"
     inkscape:window-maximized="1"
     inkscape:current-layer="layer1" />
  <defs
     id="defs2">
    <rect
       x="301.01044"
       y="419.29843"
       width="192.16629"
       height="164.36121"
       id="rect32420" />
    <rect
       x="300.5625"
       y="413.02734"
       width="192.61423"
       height="161.22568"
       id="rect7850" />
  </defs>
  <g
     inkscape:label="Calque 1"
     inkscape:groupmode="layer"
     id="layer1">
    <g
       id="g53836"
       transform="matrix(0.66666667,0,0,0.67495794,-32.578884,-55.725086)">
      <path
         id="path2692"
         style="opacity:1;fill:#000000;fill-opacity:1;stroke:none;stroke-width:3.4739;stroke-linecap:round;paint-order:fill markers stroke"
         d="m 105.11831,101.08055 c -2.3827,0 -4.76507,0.59848 -6.590816,1.79575 l -4.670514,3.06287 H 79.642343 74.642131 v 12.60026 l -3.797699,2.49029 c -3.651488,2.39454 -3.651488,6.25041 0,8.64495 l 3.797699,2.49028 v 5.35937 L 70.03001,134.4997 c -0.983131,-0.64471 -1.78239,-1.36209 -2.411738,-2.12287 v 37.42097 c 0.641019,-0.79918 1.474338,-1.55047 2.501656,-2.22416 l 25.174173,-16.50855 c -0.01254,-0.008 -0.02625,-0.0151 -0.03876,-0.0232 l -15.612998,-10.2387 v -5.35937 -20.18326 -4.32118 h 6.589263 37.773404 6.58978 v 4.32118 20.18326 5.35937 l -15.56236,10.20506 c 0.0125,0.008 0.0262,0.0151 0.0388,0.0232 l 25.22585,16.54214 c 0.93938,0.61602 1.70492,1.30011 2.3213,2.02314 v -37.21944 c -0.62928,0.76059 -1.42832,1.4778 -2.41122,2.12236 l -4.61212,3.02462 v -5.35937 l 3.79718,-2.49028 c 3.65149,-2.39454 3.65149,-6.25041 0,-8.64495 l -3.79718,-2.49029 v -12.60026 h -5.00021 -14.21464 l -4.67051,-3.06287 c -1.82575,-1.19727 -4.20864,-1.79575 -6.59133,-1.79575 z m 4.57646,52.13066 c -2.92476,0.66828 -6.1082,0.67708 -9.03976,0.0258 -0.727949,0.26872 -1.417128,0.60099 -2.038115,1.00821 l -27.682547,18.15393 c -1.211316,0.79435 -2.011347,1.75083 -2.418975,2.76004 h 73.386217 c -0.40761,-1.0093 -1.20807,-1.96562 -2.41949,-2.76004 l -27.68255,-18.15393 c -0.64012,-0.41977 -1.35171,-0.76145 -2.10478,-1.03405 z" />
      <g
         id="g43038"
         transform="matrix(1.1491787,0,0,1.1491787,-7.8284649,-17.546565)"
         style="stroke:#000000;stroke-width:0.912826;stroke-linecap:round;stroke-linejoin:round;stroke-miterlimit:4;stroke-dasharray:none;stroke-opacity:1">
        <g
           aria-label="@"
           transform="scale(1.0073564,0.99269732)"
           id="text36716"
           style="font-size:39.8759px;line-height:1.25;stroke-width:0.906372">
          <path
             d="m 104.55214,123.42427 -1.07088,9.07333 q -0.11683,0.95406 -0.11683,1.83024 0,1.30453 0.93459,1.30453 1.49924,0 2.86219,-2.04442 1.38242,-2.06389 1.38242,-4.98449 0,-4.22513 -3.0569,-6.85367 -3.03742,-2.648 -7.379375,-2.648 -4.770311,0 -8.02191,3.27107 -3.232129,3.27107 -3.232129,8.06085 0,4.47825 3.037423,7.78826 3.056892,3.29054 8.567087,3.29054 4.283544,0 8.742324,-2.29754 l 1.14877,2.64801 q -4.77031,2.43383 -9.891094,2.43383 -6.795258,0 -10.806213,-4.08884 -3.991484,-4.1083 -3.991484,-9.79373 0,-5.93855 4.205661,-9.93004 4.205662,-3.99148 10.163682,-3.99148 5.607548,0 9.423798,3.4463 3.81625,3.42684 3.81625,8.66444 0,3.79678 -2.14177,6.77579 -2.14178,2.95954 -5.21814,2.95954 -2.39489,0 -3.31001,-2.02495 -1.674478,2.10283 -4.088839,2.10283 -2.472773,0 -4.244603,-2.06388 -1.752359,-2.06389 -1.752359,-5.43232 0,-3.46577 1.986007,-5.62702 1.986007,-2.18071 4.731369,-2.18071 2.648009,0 3.816245,1.67448 l 0.15577,-1.36295 z m -7.78826,11.81869 q 1.557652,0 2.803774,-1.49924 1.265596,-1.51871 1.265596,-3.93307 0,-1.36295 -0.973536,-2.43384 -0.954062,-1.09035 -2.35595,-1.09035 -1.518711,0 -2.511714,1.34347 -0.993003,1.32401 -0.993003,3.44631 0,1.81077 0.759355,2.99848 0.778826,1.16824 2.005478,1.16824 z"
             style="font-weight:bold;font-family:'Franklin Gothic Medium';-inkscape-font-specification:'Franklin Gothic Medium,  Bold'"
             id="path54869" />
        </g>
      </g>
    </g>
  </g>
</svg>
