<?xml version="1.0" encoding="UTF-8" standalone="no"?>
<!-- Created with Inkscape (http://www.inkscape.org/) -->

<svg
   width="755"
   height="143"
   viewBox="0 0 199.76041 37.835418"
   version="1.1"
   id="svg5"
   inkscape:version="1.1 (c68e22c387, 2021-05-23)"
   sodipodi:docname="didier-pascarel-bold.svg"
   xmlns:inkscape="http://www.inkscape.org/namespaces/inkscape"
   xmlns:sodipodi="http://sodipodi.sourceforge.net/DTD/sodipodi-0.dtd"
   xmlns="http://www.w3.org/2000/svg"
   xmlns:svg="http://www.w3.org/2000/svg">
  <sodipodi:namedview
     id="namedview7"
     pagecolor="#ffffff"
     bordercolor="#666666"
     borderopacity="1.0"
     inkscape:pageshadow="2"
     inkscape:pageopacity="0.0"
     inkscape:pagecheckerboard="0"
     inkscape:document-units="mm"
     showgrid="false"
     inkscape:zoom="0.68013245"
     inkscape:cx="365.37001"
     inkscape:cy="-199.2259"
     inkscape:window-width="1920"
     inkscape:window-height="1009"
     inkscape:window-x="-8"
     inkscape:window-y="-8"
     inkscape:window-maximized="1"
     inkscape:current-layer="layer1"
     units="px"
     width="755px" />
  <defs
     id="defs2" />
  <g
     inkscape:label="Calque 1"
     inkscape:groupmode="layer"
     id="layer1">
    <path
       style="fill:#10154a;fill-opacity:1;stroke:none;stroke-width:0.0352778;stroke-linecap:round;stroke-linejoin:round;stroke-miterlimit:4;stroke-dasharray:none;stroke-opacity:1"
       d="M 15.924926,35.544578 C 32.010457,36.055838 62.34947,11.585302 32.471314,4.5325483 2.1189867,-1.8093067 2.0632978,10.540216 11.44152,16.945534 c 9.972828,6.811433 10.035267,9.759582 10.035267,9.759582 0,0 -2.58301,-16.7448592 -2.411754,-19.713623 0.0196,-0.3397269 0.392946,-0.3954455 0.456301,-0.053133 1.120481,6.0540528 3.997725,25.7007218 3.997725,25.7007218 0,0 -2.132837,-7.949537 -12.291726,-14.480226 C 1.0267922,11.60139 0.24207171,-3.4135223 32.752829,3.1873447 63.623173,10.306245 36.321361,37.161044 17.03377,36.754893 -2.2538262,36.348723 10.364009,24.388861 10.364009,24.388861 c 0,0 -10.87688626,10.633261 5.560917,11.155717 z"
       id="path857-0"
       sodipodi:nodetypes="scscsscscccs" />
    <g
       id="g20547">
      <path
         style="fill:#10154a;fill-opacity:1;stroke:none;stroke-width:0.0352778;stroke-linecap:round;stroke-linejoin:round;stroke-miterlimit:4;stroke-dasharray:none;stroke-opacity:1"
         d="m 58.2876,29.035916 c 2.998019,-1.680337 5.148491,4.097129 1.589202,5.137405 -4.789708,1.399891 -8.128947,-1.773123 -3.288587,-7.024794 -3.062673,4.929364 -0.644177,7.090949 2.65551,6.127524 2.957828,-0.863611 1.545371,-4.184766 -0.839368,-3.863245 -0.160883,0.02169 -0.311084,-0.267973 -0.116757,-0.37689 z"
         id="path866"
         sodipodi:nodetypes="sscsss" />
      <path
         style="fill:#10154a;fill-opacity:1;stroke:none;stroke-width:0.0352778;stroke-linecap:round;stroke-linejoin:round;stroke-miterlimit:4;stroke-dasharray:none;stroke-opacity:1"
         d="m 48.59922,25.918872 c -1.438519,4.831454 -2.241443,10.094225 3.78279,7.318756 -4.243508,0.657772 -3.386667,-2.063232 -3.473356,-7.274084 -0.0064,-0.188312 -0.269528,-0.168446 -0.309434,-0.04467 z"
         id="path864"
         sodipodi:nodetypes="ccccc" />
      <path
         style="fill:#10154a;fill-opacity:1;stroke:none;stroke-width:0.0352778;stroke-linecap:round;stroke-linejoin:round;stroke-miterlimit:4;stroke-dasharray:none;stroke-opacity:1"
         d="m 49.56298,19.981024 c -0.161245,-0.06125 -0.13064,-0.54617 0.0047,-0.596888 0.261587,-0.09804 0.534299,0.120265 0.833102,-0.0552 0.177785,0.33176 -0.01747,0.937098 -0.837792,0.652085 z"
         id="path868"
         sodipodi:nodetypes="cscc" />
      <path
         style="fill:#10154a;fill-opacity:1;stroke:none;stroke-width:0.0352778;stroke-linecap:round;stroke-linejoin:round;stroke-miterlimit:4;stroke-dasharray:none;stroke-opacity:1"
         d="m 80.24386,31.063545 c 2.280476,-0.890905 1.708203,-2.190404 0.947978,-1.813878 -1.704,0.843962 -3.277905,6.819953 1.740989,3.801356 8.351374,-5.022906 4.025247,1.310749 7.373289,0.716087 1.51529,-0.269138 2.66972,-1.298306 2.66972,-1.298306 0,0 -0.203126,1.260777 -2.56564,1.880395 -4.59422,1.204929 0.231873,-4.469829 -6.788737,-0.520243 -6.035511,3.395395 -6.78624,-2.150127 -3.047571,-5.131223 1.692666,-1.349678 4.203455,1.862025 -0.263418,2.509726 -0.114772,0.02885 -0.147248,-0.120824 -0.06661,-0.143913 z"
         id="path872"
         sodipodi:nodetypes="cssscsssccc" />
      <path
         style="opacity:1;fill:#10154a;fill-opacity:1;stroke:none;stroke-width:0.0352778;stroke-linecap:round;stroke-linejoin:round;stroke-miterlimit:4;stroke-dasharray:none;stroke-opacity:1"
         d="m 64.397862,34.167506 c 4.756412,-1.549061 4.452922,-2.201457 5.120018,-2.172697 0.667096,0.02881 0.19879,3.919447 7.115338,0.476633 -6.853778,1.719065 -5.96459,-1.979498 -6.631686,-2.008308 -0.667096,-0.02876 -0.598005,0.462176 -5.194386,2.436087 -4.596381,1.973911 -2.436554,-15.35417 -3.486724,-17.295183 -0.179171,0.9047 -2.577274,20.405087 3.07744,18.563468 z"
         id="path870"
         sodipodi:nodetypes="scccscs" />
      <path
         style="fill:#10154a;fill-opacity:1;stroke:none;stroke-width:0.0352778;stroke-linecap:round;stroke-linejoin:round;stroke-miterlimit:4;stroke-dasharray:none;stroke-opacity:1"
         d="m 76.337992,23.190476 c 0,0 -0.439707,-0.162272 -0.926049,-0.301137 0.150977,0.276302 -0.131387,0.72245 0.607929,0.834598 0.253409,0.03844 0.578819,-0.444718 0.31812,-0.533461 z"
         id="path1660"
         sodipodi:nodetypes="ccsc" />
    </g>
    <path
       style="fill:#10154a;fill-opacity:1;stroke:none;stroke-width:0.0352778;stroke-linecap:round;stroke-linejoin:round;stroke-miterlimit:4;stroke-dasharray:none;stroke-opacity:1"
       d="m 109.73222,14.147714 c -3.98807,2.06303 1.73922,14.892863 1.73922,14.892863 0,0 -4.75914,-7.275325 -10.62325,-11.404063 -13.856305,-9.7557855 24.8485,-22.5295787 29.23714,-8.9805835 2.83488,8.7520885 -14.42297,9.3910435 -16.13991,9.6778545 2.89457,1.32697 22.76405,-0.442471 17.02676,-10.8503785 -8.00844,-14.5279484 -44.736982,0.5007839 -31.716519,10.0157355 7.443299,5.439338 15.858269,18.362196 15.858269,18.362196 0,0 -7.537,-18.07275 -4.87367,-21.337573 0.18185,-0.220421 -0.22509,-0.522417 -0.50804,-0.376051 z"
       id="path1097-1"
       sodipodi:nodetypes="scsscssccs" />
    <g
       id="g20555">
      <path
         style="fill:#10154a;fill-opacity:1;stroke:none;stroke-width:0.0352778;stroke-linecap:round;stroke-linejoin:round;stroke-miterlimit:4;stroke-dasharray:none;stroke-opacity:1"
         d="m 124.17333,22.367685 c 1.30579,-0.136432 5.22695,11.703301 4.39983,11.614921 -1.45752,-0.155741 -3.37434,-3.015307 -5.25126,-4.233567 4.02958,0.0309 3.65211,0.244223 9.6991,-1.978128 5.64882,-2.076016 4.78982,-11.348804 -2.42528,-4.491045 -4.89643,4.653922 9.81493,4.822448 8.0819,7.709381 -1.55316,2.587294 -6.33783,2.787441 -6.81827,2.084826 -0.51419,-0.751961 1.15403,-1.32582 1.15403,-1.32582 0,0 -2.25865,0.361123 -1.73564,1.8633 0.41967,1.205357 7.61247,1.137896 8.92426,-2.595677 1.32562,-3.772955 -11.91066,-4.175018 -8.66145,-7.134549 5.85243,-5.330663 7.00791,1.710854 1.27777,3.959123 -4.94385,1.939766 -12.81863,0.46159 -10.87982,1.291349 3.39013,1.450883 4.83884,4.749341 6.80711,5.00977 1.95951,0.25927 -2.04084,-12.483785 -4.54216,-12.882766 -3.46332,-0.552427 -3.99446,10.575896 -4.00566,12.229123 -0.002,0.309942 0.67593,0.351026 0.75221,0.0827 0.68409,-3.267457 1.64202,-11.037722 3.22333,-11.20294 z"
         id="path1883"
         sodipodi:nodetypes="sscsssscsssssssscs" />
      <path
         style="fill:#10154a;fill-opacity:1;stroke:none;stroke-width:0.0352778;stroke-linecap:round;stroke-linejoin:round;stroke-miterlimit:4;stroke-dasharray:none;stroke-opacity:1"
         d="m 148.95655,32.913677 c -9.45337,2.249816 -3.95534,-7.045207 -1.38001,-8.914259 2.72495,-1.977635 5.93209,-1.467841 4.90563,0.267921 1.4995,-2.738486 -2.43156,-3.512441 -5.89106,-0.96653 -3.91087,2.878079 -8.60696,13.721752 2.04489,10.275574 2.8378,-0.918111 3.91451,-2.004108 3.91451,-2.004108 0,0 -0.69238,0.650852 -3.59396,1.341402 z"
         id="path3153"
         sodipodi:nodetypes="sscsscs" />
      <path
         style="fill:#10154a;fill-opacity:1;stroke:none;stroke-width:0.0352778;stroke-linecap:round;stroke-linejoin:round;stroke-miterlimit:4;stroke-dasharray:none;stroke-opacity:1"
         d="m 155.0214,28.315233 c -0.27839,0.424571 9.31478,6.062228 9.52345,5.895303 0.20866,-0.166934 -2.33311,-12.518635 -4.96614,-12.686609 -2.07705,-0.132505 -4.40927,9.854973 -4.75567,12.107397 -0.0809,0.526214 0.70331,0.641297 0.91349,0.196848 0.44567,-0.942452 2.36145,-10.544097 3.91419,-10.74064 1.42394,-0.180241 4.00583,10.265994 3.79717,10.432928 -0.20867,0.166925 -7.68296,-4.24005 -7.64528,-4.695047 0.22797,-0.453617 7.37428,0.415471 9.12036,-1.580636 -2.85902,0.494313 -8.94262,-0.392064 -9.90157,1.070456 z"
         id="path3781-6"
         sodipodi:nodetypes="sssssssccs" />
      <path
         style="fill:#10154a;fill-opacity:1;stroke:none;stroke-width:0.0352778;stroke-linecap:round;stroke-linejoin:round;stroke-miterlimit:4;stroke-dasharray:none;stroke-opacity:1"
         d="m 179.89829,33.398743 c -4.53141,-0.97916 -1.38209,-6.840094 -1.72419,-12.323069 -1.56662,6.56503 -2.80365,11.067603 -4.96301,11.168764 -5.02934,0.235613 -0.34148,-3.137263 0.7265,-6.077428 2.05357,-5.653437 -4.17868,-5.05285 -5.55039,-3.797643 -1.21444,1.111311 -0.30812,11.204917 -0.49089,11.212717 -0.22023,0.0094 -0.36215,-7.234003 -0.52796,-7.372146 0.007,1.270881 -0.96631,8.444671 0.51,8.169146 1.54767,-0.288844 0.1743,-9.874921 1.39519,-10.979139 1.21909,-1.102583 5.57429,-1.532351 2.99213,3.504543 -1.24717,2.43281 -5.21729,6.262894 -0.23701,6.393527 0.97313,0.02553 2.83938,0.423947 5.04658,-7.81132 0,0 -2.82814,8.135339 1.84196,8.921157 4.72678,0.795355 5.41277,-2.368676 4.80729,-2.752376 0.30323,0.192162 0.85885,2.755628 -3.8262,1.743267 z"
         id="path3882"
         sodipodi:nodetypes="scsssscsssscscs" />
      <path
         style="fill:#10154a;fill-opacity:1;stroke:none;stroke-width:0.0352778;stroke-linecap:round;stroke-linejoin:round;stroke-miterlimit:4;stroke-dasharray:none;stroke-opacity:1"
         d="m 178.5807,22.941966 c 7.75806,3.789175 4.49934,5.780173 -0.64609,5.054594 -0.33184,-0.04679 -0.2893,-0.936577 -0.0775,-0.926025 5.56221,0.277096 7.52538,-1.125837 -0.62187,-4.664416 2.49837,-0.428866 5.98056,-0.567262 7.11917,-0.91634 -0.68237,1.336818 -4.19066,1.851211 -5.77372,1.452187 z"
         id="path5966-2"
         sodipodi:nodetypes="cssccc" />
      <path
         style="fill:#10154a;fill-opacity:1;stroke:none;stroke-width:0.0352778;stroke-linecap:round;stroke-linejoin:round;stroke-miterlimit:4;stroke-dasharray:none;stroke-opacity:1"
         d="m 194.56054,33.091217 c -0.96187,0.122095 -5.82088,0.796926 -6.66559,-0.482559 -0.89986,-1.363023 0.59238,-6.699536 -1.24921,-10.617503 0.14064,3.788104 -1.19283,10.307422 0.16693,11.779259 1.25757,1.36122 5.52361,0.788425 7.34017,0.513706 1.24807,-0.188745 3.84408,-0.430239 4.34486,-0.346781 -0.50078,-0.08346 -2.68495,-1.005071 -3.93716,-0.846122 z"
         id="path6210-0"
         sodipodi:nodetypes="sscsscs" />
    </g>
    <path
       style="fill:#10154a;fill-opacity:1;stroke:none;stroke-width:0.0352778;stroke-linecap:round;stroke-linejoin:round;stroke-miterlimit:4;stroke-dasharray:none;stroke-opacity:1"
       d="m 74.261008,-38.979811 c 19.287591,0.40615 46.589402,-26.448649 15.719059,-33.567549 -32.510757,-6.600867 -31.726037,8.414046 -21.525496,14.971511 10.158889,6.530689 12.291726,14.480227 12.291726,14.480227 0,0 -2.877244,-19.646669 -3.997725,-25.700722 -0.06335,-0.342313 -0.436701,-0.286594 -0.456301,0.05313 -0.171256,2.968763 2.411754,19.713622 2.411754,19.713622 0,0 -0.06244,-2.948149 -10.035267,-9.759581 -9.378222,-6.405315 -9.322533,-18.754838 21.029794,-12.412983 29.878158,7.052754 0.122669,31.52329 -15.962862,31.01203 -16.437803,-0.522456 -5.560917,-11.520422 -5.560917,-11.520422 28.472462,-24.542684 88.885897,8.402764 75.846447,-16.929767 -7.54075,-14.649836 -48.043633,1.08431 -34.63416,10.404752 7.56999,5.261614 15.85827,18.362197 15.85827,18.362197 0,0 -7.53699,-18.07275 -4.87367,-21.337573 0.18185,-0.220421 -0.22508,-0.522417 -0.50804,-0.376051 -3.98807,2.06303 1.73923,14.892863 1.73923,14.892863 0,0 -4.75914,-7.275325 -10.62326,-11.404063 -13.856293,-9.755786 26.53256,-22.536816 31.96027,-9.369601 8.37837,20.325356 -49.512596,-8.28394 -75.348613,16.121947 0,0 -12.617835,11.959863 6.669761,12.366033 z"
       id="path857-0-5"
       sodipodi:nodetypes="ccscsscscscssccscsscc" />
    <path
       style="fill:#10154a;fill-opacity:1;stroke:none;stroke-width:0.0352778;stroke-linecap:round;stroke-linejoin:round;stroke-miterlimit:4;stroke-dasharray:none;stroke-opacity:1"
       d="m 49.752914,-2.0231606 c 19.287591,0.40615 46.589404,-26.4486484 15.719059,-33.5675484 -32.510757,-6.600867 -31.726037,8.414046 -21.525496,14.971511 10.158889,6.530689 12.291726,14.4802264 12.291726,14.4802264 0,0 -2.877244,-19.6466684 -3.997725,-25.7007214 -0.06335,-0.342313 -0.436701,-0.286594 -0.456301,0.05313 -0.171256,2.968763 2.411754,19.713622 2.411754,19.713622 0,0 -0.06244,-2.948149 -10.035267,-9.759581 -9.378222,-6.405315 -9.322533,-18.754838 21.029794,-12.412983 29.87816,7.052754 0.122669,31.5232894 -15.962862,31.0120294 -16.437803,-0.522456 -5.560917,-11.5204214 -5.560917,-11.5204214 28.472462,-24.542684 135.981721,8.4027634 122.942261,-16.929767 -7.54074,-14.649836 -48.04363,1.08431 -34.63415,10.404752 7.56998,5.261614 15.85827,18.3621964 15.85827,18.3621964 0,0 -7.537,-18.0727494 -4.87367,-21.3375724 0.18185,-0.220421 -0.22509,-0.522417 -0.50804,-0.376051 -3.98807,2.06303 1.73922,14.8928624 1.73922,14.8928624 0,0 -4.75914,-7.2753244 -10.62325,-11.4040624 -13.8563,-9.755786 26.53256,-22.536816 31.96026,-9.369601 8.37838,20.325355 -96.60841,-8.28394 -122.444427,16.121947 0,0 -12.617835,11.9598624 6.669761,12.3660324 z"
       id="path857-0-5-4"
       sodipodi:nodetypes="ccscsscscscssccscsscc" />
  </g>
</svg>
