<?xml version="1.0" encoding="UTF-8" standalone="no"?>
<!-- Created with Inkscape (http://www.inkscape.org/) -->

<svg
   width="755"
   height="143"
   viewBox="0 0 199.76041 37.835418"
   version="1.1"
   id="svg5"
   inkscape:version="1.1 (c68e22c387, 2021-05-23)"
   sodipodi:docname="didier-pascarel.svg"
   xmlns:inkscape="http://www.inkscape.org/namespaces/inkscape"
   xmlns:sodipodi="http://sodipodi.sourceforge.net/DTD/sodipodi-0.dtd"
   xmlns="http://www.w3.org/2000/svg"
   xmlns:svg="http://www.w3.org/2000/svg">
  <sodipodi:namedview
     id="namedview7"
     pagecolor="#ffffff"
     bordercolor="#666666"
     borderopacity="1.0"
     inkscape:pageshadow="2"
     inkscape:pageopacity="0.0"
     inkscape:pagecheckerboard="0"
     inkscape:document-units="mm"
     showgrid="false"
     inkscape:zoom="0.70710678"
     inkscape:cx="429.21382"
     inkscape:cy="-140.71425"
     inkscape:window-width="1920"
     inkscape:window-height="1009"
     inkscape:window-x="-8"
     inkscape:window-y="-8"
     inkscape:window-maximized="1"
     inkscape:current-layer="layer1"
     units="px"
     width="755px" />
  <defs
     id="defs2" />
  <g
     inkscape:label="Calque 1"
     inkscape:groupmode="layer"
     id="layer1">
    <path
       style="fill:#10154a;fill-opacity:1;stroke:none;stroke-width:0.0352778;stroke-linecap:round;stroke-linejoin:round;stroke-miterlimit:4;stroke-dasharray:none;stroke-opacity:1"
       d="M 16.189509,36.465724 C 34.743234,37.087718 63.308079,10.776706 32.437735,3.6578055 2.0854082,-2.6840495 0.77784421,10.539711 10.805711,17.269851 c 10.027868,6.73014 11.837062,12.489946 11.837062,12.489946 0,0 -2.263325,-14.536965 -3.545764,-22.7414638 -0.04104,-0.2130999 0.396348,-0.307819 0.424325,-0.079973 0.462235,4.6646738 3.997725,25.7007218 3.997725,25.7007218 0,0 -2.132837,-7.949537 -12.291726,-14.480226 C 1.0267922,11.60139 0.24207171,-3.4135223 32.752829,3.1873447 63.623173,10.306245 36.321361,37.161044 17.03377,36.754893 -2.2538262,36.348723 10.364009,24.388861 10.364009,24.388861 c 0,0 -11.9080259,11.929705 5.8255,12.076863 z"
       id="path857-0"
       sodipodi:nodetypes="ccsccccscccc" />
    <path
       style="fill:#10154a;fill-opacity:1;stroke:#102060;stroke-width:0.0352778;stroke-linecap:round;stroke-linejoin:round;stroke-miterlimit:4;stroke-dasharray:none;stroke-opacity:1"
       d="m 58.2876,29.035916 c 3.047626,-1.588593 5.148491,4.097129 1.589202,5.137405 -4.789708,1.399891 -8.386194,-2.451319 -3.288587,-7.024794 -3.834414,4.087465 -2.193976,7.637142 2.795826,6.758949 3.897904,-0.686021 1.598795,-5.707177 -0.987952,-4.649699 -0.08876,0.03829 -0.230328,-0.150505 -0.108489,-0.221861 z"
       id="path866"
       sodipodi:nodetypes="cscscc" />
    <path
       style="fill:#10154a;fill-opacity:1;stroke:none;stroke-width:0.0352778;stroke-linecap:round;stroke-linejoin:round;stroke-miterlimit:4;stroke-dasharray:none;stroke-opacity:1"
       d="m 48.59922,25.918872 c -0.660814,5.251689 -1.633405,10.047453 3.78279,7.318756 -5.052595,2.338823 -3.801964,-2.053622 -3.658969,-7.297286 0.008,-0.08371 -0.108843,-0.09753 -0.123821,-0.02147 z"
       id="path864"
       sodipodi:nodetypes="cccc" />
    <path
       style="fill:#10154a;fill-opacity:1;stroke:none;stroke-width:0.0352778;stroke-linecap:round;stroke-linejoin:round;stroke-miterlimit:4;stroke-dasharray:none;stroke-opacity:1"
       d="m 49.649323,19.575894 c 0.613114,0.19132 0.871304,-0.173871 0.871304,-0.173871 0,0 0.374094,0.470814 -0.945954,0.353908 -0.385433,-0.03973 -0.196798,-0.279361 0.07465,-0.180037 z"
       id="path868"
       sodipodi:nodetypes="cccc" />
    <path
       style="fill:#10154a;fill-opacity:1;stroke:none;stroke-width:0.0352778;stroke-linecap:round;stroke-linejoin:round;stroke-miterlimit:4;stroke-dasharray:none;stroke-opacity:1"
       d="m 80.24386,31.063545 c 2.247747,-0.758613 2.313384,-3.380184 0.829385,-2.074793 -1.496389,1.316291 -3.844208,7.317004 1.72729,4.359927 8.230373,-4.368277 4.074857,1.194994 7.422899,0.600332 1.51529,-0.269138 2.752402,-1.480207 2.752402,-1.480207 0,0 -1.314944,1.390054 -2.612412,1.658227 -3.946378,0.815678 0.295287,-4.681378 -7.321673,-0.579783 -6.097241,3.283254 -3.929427,-3.379802 -2.081993,-4.849515 1.694173,-1.347787 2.314836,1.692526 -0.678227,2.406373 -0.05276,0.01645 -0.0687,-0.03194 -0.03767,-0.04056 z"
       id="path872"
       sodipodi:nodetypes="cssscsssccc" />
    <path
       style="fill:#10154a;fill-opacity:1;stroke:none;stroke-width:0.0352778;stroke-linecap:round;stroke-linejoin:round;stroke-miterlimit:4;stroke-dasharray:none;stroke-opacity:1;opacity:1"
       d="m 64.397862,34.167506 c 4.596381,-1.973911 4.684432,-3.094426 5.351528,-3.065666 0.667096,0.02881 -0.03272,4.812416 6.883828,1.369602 -7.204569,2.888369 -5.96459,-1.979498 -6.631686,-2.008308 -0.667096,-0.02876 -0.724622,1.213855 -5.321003,3.187766 -4.596381,1.973911 -3.037541,-17.164182 -3.360107,-18.046862 -0.179171,0.9047 -1.518941,20.537379 3.07744,18.563468 z"
       id="path870"
       sodipodi:nodetypes="scccscs" />
    <path
       style="fill:#10154a;stroke:#102060;stroke-width:0.0352778;stroke-linecap:round;stroke-linejoin:round;stroke-miterlimit:4;stroke-dasharray:none;stroke-opacity:1;fill-opacity:1"
       d="m 76.337992,23.190476 c 0,0 -0.439707,-0.162272 -0.926049,-0.301137 0.267907,0.440005 0.736552,0.507193 0.736552,0.507193 0.249373,0.05922 0.450196,-0.117313 0.189497,-0.206056 z"
       id="path1660"
       sodipodi:nodetypes="cccc" />
    <path
       style="fill:#10154a;fill-opacity:1;stroke:none;stroke-width:0.0352778;stroke-linecap:round;stroke-linejoin:round;stroke-miterlimit:4;stroke-dasharray:none;stroke-opacity:1"
       d="m 109.87125,14.248575 c -2.31977,4.437977 3.69374,18.848264 3.69374,18.848264 0,0 -7.68139,-11.375203 -13.5455,-15.503941 -13.856304,-9.7557852 24.8485,-25.5390631 31.069,-8.8933518 3.22043,8.6176808 -13.07088,10.5686678 -17.14307,9.6342388 4.07219,0.934429 22.06019,-0.08443 17.02676,-10.8503785 -7.17974,-15.3566471 -44.736982,0.5007839 -31.716519,10.0157355 7.443299,5.439338 15.858269,18.362196 15.858269,18.362196 0,0 -7.67875,-17.527553 -4.84096,-21.533844 0.18185,-0.220421 -0.24314,-0.355201 -0.40172,-0.07892 z"
       id="path1097-1"
       sodipodi:nodetypes="ccsscssccc" />
    <path
       style="fill:#10154a;fill-opacity:1;stroke:none;stroke-width:0.0352778;stroke-linecap:round;stroke-linejoin:round;stroke-miterlimit:4;stroke-dasharray:none;stroke-opacity:1"
       d="m 120.66836,33.543825 c 0.50079,-2.17008 1.81182,-12.630288 3.51601,-12.048454 1.20122,0.410112 5.7253,12.645362 4.38879,12.487235 -1.69909,-0.201026 -3.59903,-3.649923 -6.24431,-4.738861 -0.62952,-0.259145 2.29406,1.292341 10.69215,-1.472834 5.78266,-1.904014 5.2834,-10.927183 -2.18492,-4.346091 -4.70192,4.143337 10.72464,4.197512 8.67221,7.580963 -1.82096,3.001858 -7.98731,3.409888 -8.15424,2.575245 -0.16692,-0.834643 0.30334,-0.989416 0.30334,-0.989416 0,0 -0.5491,0.185807 -0.37965,1.019941 0.19745,0.972005 6.76063,0.79291 8.59685,-2.712607 1.83621,-3.505506 -13.66784,-3.751134 -8.67221,-7.535176 7.5599,-5.726397 7.15754,2.88714 1.48732,4.482527 -7.649,2.152142 -12.17156,0.802009 -10.78628,1.256269 2.83453,0.929501 4.98592,4.801113 6.80711,5.00977 1.33708,0.153192 -2.49916,-12.372284 -4.50708,-12.853533 -2.21682,-0.531318 -3.36244,10.492686 -3.66482,12.212525 -0.0159,0.09415 0.11567,0.155225 0.12973,0.0725 z"
       id="path1883"
       sodipodi:nodetypes="cssssssscsssssssccc" />
    <path
       style="fill:#10154a;fill-opacity:1;stroke:none;stroke-width:0.0352778;stroke-linecap:round;stroke-linejoin:round;stroke-miterlimit:4;stroke-dasharray:none;stroke-opacity:1"
       d="m 148.75811,33.508989 c -10.63614,2.973492 -4.51386,-8.033534 -1.53107,-10.192892 3.29977,-2.388833 5.15906,-0.924837 5.11481,-0.475309 0.56406,-1.007916 -2.40775,-2.237057 -5.75074,0.460021 -3.04558,2.457129 -8.60696,13.837507 2.04489,10.391329 2.8378,-0.918111 3.91451,-2.004108 3.91451,-2.004108 0,0 -0.91992,1.017914 -3.7924,1.820959 z"
       id="path3153"
       sodipodi:nodetypes="sscsscs" />
    <path
       style="fill:#10154a;fill-opacity:1;stroke:none;stroke-width:0.0352778;stroke-linecap:round;stroke-linejoin:round;stroke-miterlimit:4;stroke-dasharray:none;stroke-opacity:1"
       d="m 155.57242,28.701875 c -0.0835,0.500784 8.76376,5.675586 8.97243,5.508661 0.20866,-0.166934 -2.33311,-12.518635 -4.96614,-12.686609 -2.07705,-0.132505 -4.23375,9.034 -4.96614,12.060625 -0.0271,0.117312 0.0721,0.112538 0.0946,0.06637 0.90542,-2.036277 2.87221,-11.836054 4.86726,-11.893051 2.08617,-0.0596 4.90007,12.092328 4.69141,12.259262 -0.20867,0.166925 -8.58276,-4.748416 -8.54508,-5.203413 0.22797,-0.453617 7.74292,-0.652742 7.56281,-1.14096 -0.3067,0.04339 -7.35125,0.183692 -7.71117,1.029111 z"
       id="path3781-6"
       sodipodi:nodetypes="cssccssccc" />
    <path
       style="fill:#10154a;fill-opacity:1;stroke:none;stroke-width:0.0352778;stroke-linecap:round;stroke-linejoin:round;stroke-miterlimit:4;stroke-dasharray:none;stroke-opacity:1"
       d="m 179.00874,34.117681 c -4.53141,-0.97916 -0.83464,-13.042007 -0.83464,-13.042007 -2.2072,8.235267 -3.07644,11.599559 -5.23809,11.581379 -5.35675,-0.04502 -0.0898,-3.573264 1.00158,-6.490043 2.10784,-5.633428 -4.17868,-5.05285 -5.55039,-3.797643 -1.21444,1.111311 -0.33151,11.766183 -0.51428,11.773983 -0.22023,0.0094 -0.33876,-7.795269 -0.50457,-7.933412 -0.0397,0.148349 -0.12556,8.293398 0.51,8.169146 0.64211,-0.125533 -0.49834,-10.737428 0.72255,-11.841646 1.21909,-1.102583 7.60638,-1.441243 4.9399,3.950267 -1.45765,2.947304 -6.16501,6.328886 -1.18473,6.459519 0.97313,0.02553 2.51197,0.774738 4.71917,-7.460529 0,0 -2.41473,8.003047 1.84196,8.921157 4.68548,1.010587 5.41277,-2.368676 4.80729,-2.752376 0.30323,0.192162 -0.0307,3.474566 -4.71575,2.462205 z"
       id="path3882"
       sodipodi:nodetypes="scsssscsssscscs" />
    <path
       style="fill:#10154a;fill-opacity:1;stroke:none;stroke-width:0.0352778;stroke-linecap:round;stroke-linejoin:round;stroke-miterlimit:4;stroke-dasharray:none;stroke-opacity:1"
       d="m 177.75388,22.64431 c 8.17147,3.474982 5.05319,4.731538 0.026,5.185573 -0.17457,0.01604 -0.17563,-0.12595 -0.10656,-0.138973 4.96614,-0.667709 8.02337,-1.680066 -0.23963,-5.185572 2.26686,-0.230429 6.21207,-0.798773 6.92073,-1.015559 0.0539,0.555154 -5.85377,1.438596 -6.60054,1.154531 z"
       id="path5966-2"
       sodipodi:nodetypes="cccccc" />
    <path
       style="fill:#10154a;fill-opacity:1;stroke:none;stroke-width:0.0352778;stroke-linecap:round;stroke-linejoin:round;stroke-miterlimit:4;stroke-dasharray:none;stroke-opacity:1"
       d="m 194.7616,33.815402 c -0.96187,0.122095 -6.95848,0.93184 -7.80319,-0.347645 -0.89986,-1.363023 0.77428,-9.520196 -0.31267,-11.476602 0.53751,2.200604 -1.19283,10.307422 0.16693,11.779259 1.25757,1.36122 5.98663,0.589988 7.80319,0.315269 1.24807,-0.188745 3.38106,-0.231802 3.88184,-0.148344 -0.50078,-0.08346 -2.48389,-0.280886 -3.7361,-0.121937 z"
       id="path6210-0"
       sodipodi:nodetypes="sscsscs" />
  </g>
</svg>
