<?xml version="1.0" encoding="UTF-8" standalone="no"?>
<svg
   viewBox="0 0 125.32914 135"
   role="img"
   version="1.1"
   id="svg20"
   sodipodi:docname="logo-mdn.svg"
   width="125.32913"
   height="135"
   inkscape:version="1.1 (c68e22c387, 2021-05-23)"
   xmlns:inkscape="http://www.inkscape.org/namespaces/inkscape"
   xmlns:sodipodi="http://sodipodi.sourceforge.net/DTD/sodipodi-0.dtd"
   xmlns="http://www.w3.org/2000/svg"
   xmlns:svg="http://www.w3.org/2000/svg"
   xmlns:rdf="http://www.w3.org/1999/02/22-rdf-syntax-ns#"
   xmlns:cc="http://creativecommons.org/ns#"
   xmlns:dc="http://purl.org/dc/elements/1.1/">
  <defs
     id="defs24" />
  <sodipodi:namedview
     id="namedview22"
     pagecolor="#ffffff"
     bordercolor="#666666"
     borderopacity="1.0"
     inkscape:pageshadow="2"
     inkscape:pageopacity="0.0"
     inkscape:pagecheckerboard="0"
     showgrid="false"
     units="px"
     width="33.16mm"
     inkscape:zoom="2.3664055"
     inkscape:cx="189.31667"
     inkscape:cy="67.401804"
     inkscape:window-width="1920"
     inkscape:window-height="1009"
     inkscape:window-x="-8"
     inkscape:window-y="-8"
     inkscape:window-maximized="1"
     inkscape:current-layer="svg20" />
  <title
     id="title2">MDN Logo</title>
  <path
     d="M 7.14,8.35 V 119.41 H 118.19 V 8.35 Z m 103.71,56 c -0.48,0.92 -1,1.79 -1.46,2.71 a 3.44,3.44 0 0 1 -3.54,2 2.4,2.4 0 0 0 -1.55,0.5 c -1.37,0.9 -2.76,1.79 -4.18,2.63 a 7.33,7.33 0 0 1 -6.35,0.34 29.71,29.71 0 0 0 -10.63,-2 11.7,11.7 0 0 0 -9.46,4.31 14.84,14.84 0 0 0 -2.13,4.29 c -1.24,3.07 -2.3,21.38 -2.3,26.05 0,0 -17.62,-3.42 -34.15,-20.34 L 39.41,73.52 H 25.91 L 35.67,63.17 H 18.87 L 28.64,52.83 H 12.69 L 30.45,34 A 40.9,40.9 0 0 1 50.22,23.17 c 7.1,-1.22 8.93,-0.53 13.31,0.77 l 2.43,0.73 0.85,0.25 3.1,0.95 a 12.56,12.56 0 0 0 6.21,0.09 11.37,11.37 0 0 1 8.25,1 8.24,8.24 0 0 1 4.1,6.22 7.29,7.29 0 0 0 3.61,5.49 59.45,59.45 0 0 0 9.32,4.11 c 2.27,0.86 4.54,1.84 6.79,2.72 a 6.81,6.81 0 0 1 2.86,2.06 4.81,4.81 0 0 1 1.1,2.73 c 0.14,2 0.37,4 0.47,6 v 0 a 15.24,15.24 0 0 1 -1.77,8.03 z"
     id="path4" />
  <metadata
     id="metadata841">
    <rdf:RDF>
      <cc:Work
         rdf:about="">
        <dc:title>MDN Logo</dc:title>
      </cc:Work>
    </rdf:RDF>
  </metadata>
</svg>
