<?xml version="1.0" encoding="UTF-8" standalone="no"?>
<!-- Created with Inkscape (http://www.inkscape.org/) -->

<svg
   width="2919.0559"
   height="1383.364"
   viewBox="0 0 772.33356 366.01508"
   version="1.1"
   id="svg1417"
   inkscape:version="1.1 (c68e22c387, 2021-05-23)"
   sodipodi:docname="logo-mongoose-wordmark.svg"
   xmlns:inkscape="http://www.inkscape.org/namespaces/inkscape"
   xmlns:sodipodi="http://sodipodi.sourceforge.net/DTD/sodipodi-0.dtd"
   xmlns="http://www.w3.org/2000/svg"
   xmlns:svg="http://www.w3.org/2000/svg">
  <sodipodi:namedview
     id="namedview1419"
     pagecolor="#ffffff"
     bordercolor="#666666"
     borderopacity="1.0"
     inkscape:pageshadow="2"
     inkscape:pageopacity="0.0"
     inkscape:pagecheckerboard="0"
     inkscape:document-units="mm"
     showgrid="false"
     units="px"
     inkscape:zoom="0.22627417"
     inkscape:cx="2055.0291"
     inkscape:cy="342.50485"
     inkscape:window-width="1920"
     inkscape:window-height="1009"
     inkscape:window-x="-8"
     inkscape:window-y="-8"
     inkscape:window-maximized="1"
     inkscape:current-layer="layer1" />
  <defs
     id="defs1414" />
  <g
     inkscape:label="Calque 1"
     inkscape:groupmode="layer"
     id="layer1">
    <g
       id="g36201"
       transform="translate(6.1893718e-6,1.7632377e-4)">
      <path
         id="path1528"
         style="opacity:1;fill:#880000;fill-opacity:1;stroke:none;stroke-width:0.999999px;stroke-linecap:butt;stroke-linejoin:miter;stroke-opacity:1"
         d="m 1563.6562,82.28125 c -41.112,0.07128 -77.1291,3.22143 -106.0761,9.974609 42.6984,16.956681 95.8337,44.860921 117.3652,63.291021 -131.3442,-61.097713 -282.3378,-87.034827 -295.2676,-47.4336 -31.0532,95.10973 77.3925,287.89337 266.2657,336.62891 C 1451.6617,434.14008 1265.5699,350.56747 1251.6367,134.69336 988.59483,125.68 730.96108,231.81316 461.39648,467.9082 738.6644,388.58786 928.23146,438.85221 1042.0156,594.54883 l 0.6914,-141.69727 163.793,-0.55273 77.4785,142.52734 76.3731,-142.11133 169.5957,0.13672 0.1386,274.28125 28.8633,-18.50781 c 57.7894,-104.68751 176.5034,-93.10343 335.7383,-98.33203 -47.8564,-91.24558 -34.5626,-63.50687 233.8145,-129.4043 129.2002,-31.72388 212.575,-39.32999 242.791,-65.8789 15.3994,-13.53056 27.4225,-44.81779 35.08,-61.45704 7.3468,-15.96395 17.9489,-36.02296 15.8829,-50.26953 -1.4064,-9.69806 -2.9845,-15.77357 -18.2305,-23.06445 -6.2963,-3.011 -24.6816,-10.9561 -29.1406,-4.69531 -6.3343,8.89382 -25.1348,65.59961 -25.1348,65.59961 -0.052,-18.71238 -0.027,-38.16331 14.6387,-73.74805 C 2156.2411,171.25212 1785.6625,81.896343 1563.6562,82.28125 Z m -226.9433,72.05664 c 18.9616,0.33193 67.8018,24.68878 90.7598,33.48828 31.1559,11.94171 86.9946,59.80525 93.3593,71.26172 -5.9672,-1.32606 -50.9849,-27.37844 -53.5859,-22.64844 -1.9364,3.52139 30.278,43.26064 30.9355,50.82227 -11.4867,-10.52954 -52.8504,-33.58073 -56.7617,-28.03516 -3.1165,4.41876 45.2993,54.24304 49.5801,61.73438 0,0 -31.1212,-14.22938 -33.1445,-10.63477 -3.312,5.88387 45.5742,63.80469 45.5742,63.80469 -41.637,-18.45247 -194.2529,-140.62652 -174.2891,-216.13672 0.4872,-1.84262 1.9508,-2.92627 4.1953,-3.39062 0.982,-0.20316 2.1129,-0.28776 3.377,-0.26563 z m 460.3242,54.51758 c 2.2295,-0.004 4.4634,0.009 6.6563,0.0449 5.8477,0.0962 11.408,0.35208 15.8378,0.86523 66.6522,7.72101 226.9532,46.09376 226.9532,46.09376 l -27.3438,13.67187 c -90.1726,4.87571 -175.9984,17.41229 -201.5625,-42.96875 l -51.5625,-16.79688 c 0,0 15.415,-0.88267 31.0215,-0.91015 z m 260.3848,213.80078 c -171.5047,41.31009 -202.5667,71.2491 -226.1719,85.15625 -13.2713,7.81886 -5.9749,51.602 -4.2969,77.73438 0,0 -25.7127,-44.8469 -24.6093,-68.35938 1.2329,-26.27528 106.2642,-75.40964 255.0781,-94.53125 z"
         transform="scale(0.26458333)" />
      <path
         style="opacity:1;fill:#880000;fill-opacity:1;stroke:none;stroke-width:0.264583px;stroke-linecap:butt;stroke-linejoin:miter;stroke-opacity:1"
         d="m 319.58544,224.36023 -0.0731,-57.66131 20.68206,32.30203 20.90133,-32.15587 0.29232,57.369 z"
         id="path1734"
         sodipodi:nodetypes="cccccc" />
      <path
         d="m 211.79448,316.90124 h -7.47813 v -46.42901 q 0,-10.18501 -3.27169,-14.68109 -3.17821,-4.4961 -11.31067,-4.4961 -5.98251,0 -11.68459,3.67028 -5.6086,3.57852 -10.93677,10.18502 v 51.7509 h -7.47813 v -46.42901 q 0,-5.04662 -0.74781,-8.7169 -0.65434,-3.67027 -2.33692,-5.96419 -1.68258,-2.29393 -4.48688,-3.39502 -2.71082,-1.10108 -6.73032,-1.10108 -5.88902,0 -11.21719,3.67028 -5.32817,3.57852 -10.74982,10.18502 v 51.7509 h -7.47814 v -71.11161 h 7.47814 v 10.55204 q 3.73907,-4.12905 7.01075,-6.51474 3.36516,-2.47743 6.26293,-3.76203 2.99125,-1.2846 5.6086,-1.65162 2.71083,-0.45878 5.14122,-0.45878 7.01075,0 11.96501,3.21148 4.95427,3.21149 7.19771,9.81799 2.80429,-3.85378 5.88902,-6.33122 3.17821,-2.5692 6.35641,-4.03731 3.27169,-1.46811 6.54337,-2.01865 3.27169,-0.64229 6.35642,-0.64229 20.09748,0 20.09748,25.87544 z"
         id="path30830"
         style="font-size:189.671px;line-height:1.25;font-family:'Microsoft Yi Baiti';-inkscape-font-specification:'Microsoft Yi Baiti, Normal';opacity:1;fill:#880000;fill-opacity:1;stroke-width:0.38656" />
      <path
         d="m 246.52194,243.9545 q 7.38466,0 13.36716,2.56918 5.98251,2.47744 10.18896,7.34056 4.20645,4.77135 6.44989,11.74489 2.24344,6.88177 2.24344,15.59867 0,8.90042 -2.33692,15.87394 -2.24343,6.97353 -6.44989,11.83665 -4.20645,4.77135 -10.18895,7.34055 -5.98251,2.47743 -13.27369,2.47743 -7.29118,0 -13.27369,-2.47743 -5.88902,-2.47744 -10.09547,-7.2488 -4.20646,-4.86312 -6.54337,-11.83664 -2.33692,-6.97353 -2.33692,-15.9657 0,-8.80867 2.24344,-15.69044 2.33692,-6.97352 6.54337,-11.74488 4.20645,-4.77136 10.18895,-7.2488 5.98251,-2.56918 13.27369,-2.56918 z m 0,67.44132 q 5.51512,0 10.00201,-1.83514 4.58034,-1.92689 7.85203,-5.68893 3.27169,-3.85379 5.04774,-9.45096 1.86954,-5.68893 1.86954,-13.21299 0,-7.43232 -1.86954,-13.02949 -1.77605,-5.68892 -5.04774,-9.3592 -3.27169,-3.76204 -7.85203,-5.59717 -4.48689,-1.9269 -10.00201,-1.9269 -5.6086,0 -10.18896,1.9269 -4.48687,1.83513 -7.75856,5.59717 -3.27169,3.67028 -5.04774,9.3592 -1.77605,5.59717 -1.77605,13.02949 0,7.52406 1.77605,13.21299 1.77605,5.59717 5.04774,9.45096 3.27169,3.76204 7.75856,5.68893 4.58036,1.83514 10.18896,1.83514 z"
         id="path30832"
         style="font-size:189.671px;line-height:1.25;font-family:'Microsoft Yi Baiti';-inkscape-font-specification:'Microsoft Yi Baiti, Normal';opacity:1;fill:#880000;fill-opacity:1;stroke-width:0.38656" />
      <path
         d="m 289.00797,256.34167 q 3.64559,-4.22082 7.10422,-6.69825 3.55212,-2.47744 6.8238,-3.76204 3.36516,-1.28459 6.35642,-1.55986 2.99125,-0.36702 5.6086,-0.36702 22.34091,0 22.34091,25.87544 v 47.0713 h -7.47813 v -46.42901 q 0,-4.95487 -0.93477,-8.53339 -0.84128,-3.67027 -2.89777,-5.9642 -1.96301,-2.38567 -5.23469,-3.48675 -3.17821,-1.19285 -7.85204,-1.19285 -6.16946,0 -12.15197,3.57852 -5.88902,3.57853 -11.68458,10.09327 v 51.93441 h -7.47813 v -71.11161 h 7.47813 z"
         id="path30834"
         style="font-size:189.671px;line-height:1.25;font-family:'Microsoft Yi Baiti';-inkscape-font-specification:'Microsoft Yi Baiti, Normal';opacity:1;fill:#880000;fill-opacity:1;stroke-width:0.38656" />
      <path
         d="m 405.92673,312.68042 c 0,5.68893 -0.662,10.52146 -1.98599,14.49759 -1.32399,4.03731 -3.30998,7.30997 -5.95796,9.81799 -2.58178,2.50803 -5.85866,4.34316 -9.83063,5.50541 -3.97198,1.16225 -8.57285,1.74338 -13.80262,1.74338 -4.36917,0 -8.30805,-0.45878 -11.81662,-1.37635 -3.50858,-0.8564 -6.52066,-2.11041 -9.03624,-3.76204 -2.51559,-1.65162 -4.50157,-3.70085 -5.95795,-6.1477 -1.3902,-2.44685 -2.1846,-5.23015 -2.3832,-8.34989 h 7.94395 c 0.331,4.22083 2.21769,7.30998 5.66006,9.26746 3.44238,2.01865 8.53975,3.02797 15.2921,3.02797 3.97198,0 7.44746,-0.45878 10.42644,-1.37635 2.97898,-0.8564 5.46146,-2.29393 7.44745,-4.31258 1.98599,-2.01865 3.47548,-4.6796 4.46847,-7.98285 1.05919,-3.30325 1.58879,-7.37114 1.58879,-12.20367 v -4.49609 c -2.58178,2.81388 -5.03117,5.04663 -7.34816,6.69826 -2.25079,1.59045 -4.43537,2.81388 -6.55374,3.67028 -2.11839,0.79522 -4.17058,1.28459 -6.15657,1.4681 -1.91979,0.24469 -3.80647,0.36703 -5.66006,0.36703 -4.83257,0 -9.10244,-0.88698 -12.80962,-2.66095 -3.70717,-1.77397 -6.81855,-4.2514 -9.33414,-7.4323 -2.51559,-3.24208 -4.43537,-7.12646 -5.75936,-11.65314 -1.25779,-4.52667 -1.88669,-9.5733 -1.88669,-15.13989 0,-5.87244 0.7613,-11.13317 2.28389,-15.78218 1.58879,-4.71019 3.74027,-8.68633 6.45445,-11.9284 2.78039,-3.30325 6.02417,-5.81127 9.73134,-7.52407 3.77337,-1.77396 7.81155,-2.66094 12.11452,-2.66094 1.85359,0 3.77337,0.12234 5.75936,0.36702 1.98599,0.24469 2.97984,0.70347 5.09823,1.37635 2.11839,0.61171 4.26988,2.52645 6.45446,3.62754 2.18458,1.10108 5.63421,5.73263 7.61209,9.51248 v -13.04826 h 7.94395 z m -7.94395,-41.05443 c -1.0943,-4.87254 -7.84422,-15.51979 -11.75,-17.23258 -3.83957,-1.7128 -7.58028,-3.09837 -12.28045,-3.09837 -3.57477,0 -6.81855,0.6423 -9.73133,1.9269 -2.84658,1.22342 -5.29596,3.11973 -7.34815,5.68893 -2.05219,2.50802 -3.64099,5.68892 -4.76638,9.54271 -1.12539,3.79263 -1.68808,8.25813 -1.68808,13.39651 0,9.66507 2.01909,17.00562 6.05726,22.02166 4.03817,5.01605 9.66514,7.52407 16.88089,7.52407 4.76637,0 9.13554,-1.19284 13.10751,-3.57852 3.97197,-2.44685 9.87861,-9.92549 11.51873,-17.17732 z"
         id="path30836"
         style="font-size:189.671px;line-height:1.25;font-family:'Microsoft Yi Baiti';-inkscape-font-specification:'Microsoft Yi Baiti, Normal';opacity:1;fill:#880000;fill-opacity:1;stroke-width:0.398418"
         sodipodi:nodetypes="sccsscsccccscscsccccssccscccsscscccsccscccsssccc" />
      <path
         d="m 442.55383,243.9545 q 7.38466,0 13.36716,2.56918 5.98251,2.47744 10.18896,7.34056 4.20644,4.77135 6.44989,11.74489 2.24344,6.88177 2.24344,15.59867 0,8.90042 -2.33692,15.87394 -2.24344,6.97353 -6.44988,11.83665 -4.20646,4.77135 -10.18896,7.34055 -5.98251,2.47743 -13.27369,2.47743 -7.29118,0 -13.27368,-2.47743 -5.88904,-2.47744 -10.09548,-7.2488 -4.20645,-4.86312 -6.54337,-11.83664 -2.33692,-6.97353 -2.33692,-15.9657 0,-8.80867 2.24345,-15.69044 2.33691,-6.97352 6.54336,-11.74488 4.20645,-4.77136 10.18896,-7.2488 5.9825,-2.56918 13.27368,-2.56918 z m 0,67.44132 q 5.51512,0 10.002,-1.83514 4.58036,-1.92689 7.85204,-5.68893 3.27169,-3.85379 5.04774,-9.45096 1.86954,-5.68893 1.86954,-13.21299 0,-7.43232 -1.86954,-13.02949 -1.77605,-5.68892 -5.04774,-9.3592 -3.27168,-3.76204 -7.85204,-5.59717 -4.48688,-1.9269 -10.002,-1.9269 -5.6086,0 -10.18895,1.9269 -4.48688,1.83513 -7.75857,5.59717 -3.27168,3.67028 -5.04773,9.3592 -1.77607,5.59717 -1.77607,13.02949 0,7.52406 1.77607,13.21299 1.77605,5.59717 5.04773,9.45096 3.27169,3.76204 7.75857,5.68893 4.58035,1.83514 10.18895,1.83514 z"
         id="path30838"
         style="font-size:189.671px;line-height:1.25;font-family:'Microsoft Yi Baiti';-inkscape-font-specification:'Microsoft Yi Baiti, Normal';opacity:1;fill:#880000;fill-opacity:1;stroke-width:0.38656" />
      <path
         d="m 505.60473,243.9545 q 7.38466,0 13.36716,2.56918 5.98251,2.47744 10.18896,7.34056 4.20645,4.77135 6.44989,11.74489 2.24344,6.88177 2.24344,15.59867 0,8.90042 -2.33691,15.87394 -2.24345,6.97353 -6.4499,11.83665 -4.20644,4.77135 -10.18895,7.34055 -5.98251,2.47743 -13.27369,2.47743 -7.29118,0 -13.27369,-2.47743 -5.88902,-2.47744 -10.09548,-7.2488 -4.20644,-4.86312 -6.54336,-11.83664 -2.33691,-6.97353 -2.33691,-15.9657 0,-8.80867 2.24343,-15.69044 2.33692,-6.97352 6.54337,-11.74488 4.20644,-4.77136 10.18895,-7.2488 5.98251,-2.56918 13.27369,-2.56918 z m 0,67.44132 q 5.51513,0 10.002,-1.83514 4.58036,-1.92689 7.85204,-5.68893 3.27168,-3.85379 5.04775,-9.45096 1.86953,-5.68893 1.86953,-13.21299 0,-7.43232 -1.86953,-13.02949 -1.77607,-5.68892 -5.04775,-9.3592 -3.27168,-3.76204 -7.85204,-5.59717 -4.48687,-1.9269 -10.002,-1.9269 -5.6086,0 -10.18895,1.9269 -4.48689,1.83513 -7.75857,5.59717 -3.27168,3.67028 -5.04774,9.3592 -1.77605,5.59717 -1.77605,13.02949 0,7.52406 1.77605,13.21299 1.77606,5.59717 5.04774,9.45096 3.27168,3.76204 7.75857,5.68893 4.58035,1.83514 10.18895,1.83514 z"
         id="path30840"
         style="font-size:189.671px;line-height:1.25;font-family:'Microsoft Yi Baiti';-inkscape-font-specification:'Microsoft Yi Baiti, Normal';opacity:1;fill:#880000;fill-opacity:1;stroke-width:0.38656" />
      <path
         d="m 564.48084,318.73637 c -17.76057,0 -25.86348,-9.64994 -27.48374,-23.65816 h 8.10078 c 0.56086,4.28199 2.17202,9.61691 5.59949,12.06376 3.4898,2.38568 6.89736,4.25385 13.68999,4.25385 3.30285,0 6.20062,-0.33644 8.69333,-1.00933 2.49272,-0.73405 4.54921,-1.6822 6.16947,-2.84446 1.68257,-1.22343 2.92893,-2.66095 3.73906,-4.31258 0.81013,-1.65162 1.2152,-3.42559 1.2152,-5.3219 0,-1.89631 -0.34275,-3.51734 -1.02824,-4.86311 -0.62318,-1.34577 -1.80722,-2.56919 -3.55212,-3.67028 -1.68258,-1.10108 -4.0195,-2.14099 -7.01075,-3.11974 -2.92893,-1.03991 -6.69916,-1.08266 -11.31068,-2.24492 -3.92601,-0.97873 -7.41581,-1.98805 -10.46938,-3.02797 -3.05357,-1.03991 -6.07825,-3.38284 -8.19705,-4.91212 -2.05649,-1.52929 -2.02694,-2.83525 -3.08633,-4.97624 -1.05941,-2.20217 -1.15062,-4.92429 -1.15062,-8.16637 0,-2.81388 0.59202,-4.82333 1.77605,-7.08666 1.24636,-2.32451 2.72326,-4.665 4.90439,-6.25545 2.18111,-1.59046 5.06646,-3.48921 8.18235,-4.34561 3.11589,-0.85639 4.98702,-1.28458 8.7884,-1.28458 8.59986,0 15.64124,2.49586 20.0658,5.3709 4.48688,2.81388 7.50875,10.98355 8.00729,17.10068 h -7.5716 c -0.49854,-3.54794 -2.77261,-9.85189 -5.76386,-11.50351 -2.92894,-1.7128 -7.8515,-3.62753 -13.70937,-3.62753 -2.74199,0 -4.20753,0.24469 -6.51329,0.73406 -2.30575,0.48937 -3.24158,1.75259 -4.92416,2.73134 -1.62026,0.91757 -2.89777,2.11041 -3.83254,3.57852 -0.93477,1.40693 -1.40216,3.02797 -1.40216,4.86311 0,1.03991 0.18695,2.1104 0.56086,3.21149 0.37391,1.10108 0.77951,2.76192 2.27513,3.92418 1.55795,1.16225 2.80538,2.35509 5.85895,3.57851 3.05357,1.16226 6.69969,2.38568 11.9967,3.67028 4.17529,1.03992 7.78972,1.08266 10.84329,2.24491 3.11589,1.10109 5.67092,2.44686 7.66509,4.03731 2.05649,1.52928 3.58327,3.33383 4.58036,5.41366 0.99708,2.07982 2.02479,4.52667 2.02479,7.34055 0,3.11973 -0.65434,6.58512 -1.96301,9.33783 -1.24635,2.69153 -2.52441,4.48687 -4.89249,6.44436 -2.30575,1.95748 -6.19954,3.48676 -9.5647,4.58784 -3.36517,1.16225 -7.13539,1.74338 -11.31068,1.74338 z"
         id="path30842"
         style="font-size:189.671px;line-height:1.25;font-family:'Microsoft Yi Baiti';-inkscape-font-specification:'Microsoft Yi Baiti, Normal';opacity:1;fill:#880000;fill-opacity:1;stroke-width:0.38656"
         sodipodi:nodetypes="scccsccssccccsccscsssccccssccsscccccsscccs" />
      <path
         d="m 625.59881,318.73637 q -7.57161,0 -13.74107,-2.47743 -6.16946,-2.5692 -10.65634,-7.34055 -4.3934,-4.86312 -6.82379,-11.83665 -2.4304,-6.97352 -2.4304,-15.87394 0,-8.62515 2.33692,-15.50692 2.33692,-6.97352 6.63684,-11.74489 4.29992,-4.86311 10.18896,-7.43231 5.88903,-2.56918 13.08673,-2.56918 7.38465,0 13.36716,2.56918 5.98251,2.5692 10.18896,7.43231 4.20645,4.77137 6.44989,11.74489 2.24344,6.88177 2.24344,15.59867 v 1.65162 h -57.02077 q 0.56087,7.2488 2.71083,12.57071 2.14996,5.3219 5.6086,8.90042 3.45863,3.48675 7.94552,5.23014 4.58035,1.74338 9.90852,1.74338 3.73906,0 7.47814,-0.82581 3.73906,-0.91757 6.73031,-2.66096 3.08473,-1.74337 5.14122,-4.31257 2.05648,-2.5692 2.43039,-5.87244 h 7.38466 q -1.02825,5.04663 -3.64559,8.99218 -2.61735,3.85379 -6.4499,6.6065 -3.83253,2.66095 -8.69333,4.0373 -4.86078,1.37635 -10.3759,1.37635 z m 23.27569,-43.12574 q -1.86954,-12.20367 -8.50638,-18.25963 -6.54336,-6.05596 -16.17146,-6.05596 -4.76731,0 -8.88028,1.46811 -4.11298,1.46812 -7.38466,4.49609 -3.17821,3.02798 -5.42165,7.61582 -2.14996,4.58785 -3.08473,10.73557 z"
         id="path30844"
         style="font-size:189.671px;line-height:1.25;font-family:'Microsoft Yi Baiti';-inkscape-font-specification:'Microsoft Yi Baiti, Normal';opacity:1;fill:#880000;fill-opacity:1;stroke-width:0.38656" />
    </g>
  </g>
</svg>
