<?xml version="1.0" encoding="UTF-8" standalone="no"?>
<!-- Created with Inkscape (http://www.inkscape.org/) -->

<svg
   width="2125.6841"
   height="930.258"
   viewBox="0 0 562.42059 246.13077"
   version="1.1"
   id="svg1417"
   inkscape:version="1.1 (c68e22c387, 2021-05-23)"
   sodipodi:docname="logo-mongoose.svg"
   xmlns:inkscape="http://www.inkscape.org/namespaces/inkscape"
   xmlns:sodipodi="http://sodipodi.sourceforge.net/DTD/sodipodi-0.dtd"
   xmlns="http://www.w3.org/2000/svg"
   xmlns:svg="http://www.w3.org/2000/svg">
  <sodipodi:namedview
     id="namedview1419"
     pagecolor="#ffffff"
     bordercolor="#666666"
     borderopacity="1.0"
     inkscape:pageshadow="2"
     inkscape:pageopacity="0.0"
     inkscape:pagecheckerboard="0"
     inkscape:document-units="mm"
     showgrid="false"
     units="px"
     inkscape:zoom="0.32"
     inkscape:cx="1065.625"
     inkscape:cy="620.3125"
     inkscape:window-width="1920"
     inkscape:window-height="1009"
     inkscape:window-x="-8"
     inkscape:window-y="-8"
     inkscape:window-maximized="1"
     inkscape:current-layer="layer1" />
  <defs
     id="defs1414" />
  <g
     inkscape:label="Calque 1"
     inkscape:groupmode="layer"
     id="layer1">
    <g
       id="g36519"
       transform="translate(-100.30758,1.2807792e-4)"
       style="stroke:none;stroke-opacity:1;stroke-width:2.5;stroke-miterlimit:4;stroke-dasharray:none;stroke-linejoin:round;stroke-linecap:round">
      <path
         id="path1528"
         style="fill:#880000;fill-opacity:1;stroke:none;stroke-width:2.5;stroke-linecap:round;stroke-linejoin:round;stroke-opacity:1;stroke-miterlimit:4;stroke-dasharray:none"
         d="m 413.71737,21.770423 c -10.87755,0.01886 -20.40707,0.852337 -28.06597,2.639116 11.29729,4.486455 25.356,11.869452 31.05288,16.745749 -34.75149,-16.165437 -74.70188,-23.027965 -78.12289,-12.55014 -8.21616,25.164449 20.47677,76.171782 70.44947,89.066402 -24.94537,-2.80515 -74.18216,-24.917065 -77.86865,-82.033756 -69.59649,-2.384785 -137.76209,25.69628 -209.08439,88.163096 73.36047,-20.98684 123.51676,-7.68773 153.62214,33.507 l 0.18294,-37.49074 43.33689,-0.14624 20.49952,37.71036 20.20705,-37.60029 44.8722,0.0362 0.0367,72.57025 7.63675,-4.89686 c 15.29011,-27.69857 46.69985,-24.63362 88.83075,-26.01702 -12.662,-24.14206 -9.14468,-16.80286 61.86342,-34.23822 34.18422,-8.39361 56.2438,-10.40606 64.23845,-17.43046 4.07443,-3.57996 7.25554,-11.858037 9.28159,-16.260505 1.94384,-4.223795 4.74898,-9.531075 4.20235,-13.30048 -0.37211,-2.565945 -0.78965,-4.173423 -4.82349,-6.102469 -1.66589,-0.79666 -6.53034,-2.898801 -7.71012,-1.2423 -1.67595,2.353156 -6.65024,17.356563 -6.65024,17.356563 -0.0138,-4.950984 -0.007,-10.097376 3.87315,-19.512505 C 570.50546,45.310633 472.45654,21.668583 413.71737,21.770423 Z m -60.04541,19.064986 c 5.01692,0.08782 17.93922,6.53224 24.01353,8.860441 8.24333,3.159577 23.01732,15.823472 24.70131,18.854663 -1.57882,-0.350853 -13.48975,-7.243879 -14.17793,-5.9924 -0.51234,0.931701 8.01105,11.446045 8.18501,13.446726 -3.03919,-2.785941 -13.98333,-8.884902 -15.0182,-7.417636 -0.82457,1.16913 11.98544,14.351804 13.11807,16.333888 0,0 -8.23415,-3.764857 -8.76948,-2.813783 -0.8763,1.556774 12.05817,16.881657 12.05817,16.881657 -11.01645,-4.882216 -51.39608,-37.207433 -46.11399,-57.186173 0.12891,-0.487527 0.51615,-0.774242 1.11001,-0.897102 0.25982,-0.05375 0.55904,-0.07614 0.8935,-0.07028 z m 121.79411,14.424443 c 0.58988,-0.0011 1.18094,0.0024 1.76114,0.01188 1.54721,0.02545 3.01837,0.09315 4.19042,0.228925 17.63506,2.042851 60.04803,12.195641 60.04803,12.195641 l -7.23471,3.617349 c -23.85817,1.290031 -46.56624,4.607001 -53.33008,-11.368815 l -13.64258,-4.444175 c 0,0 4.07856,-0.233539 8.20778,-0.24081 z m 68.89347,56.568118 c -45.37728,10.92997 -53.59577,18.85133 -59.84131,22.53093 -3.51137,2.06874 -1.58086,13.65303 -1.13689,20.56722 0,0 -6.80315,-11.86574 -6.51121,-18.08675 0.32621,-6.952 28.11574,-19.95214 67.48941,-25.0114 z" />
      <path
         style="fill:#880000;fill-opacity:1;stroke:none;stroke-width:2.5;stroke-linecap:round;stroke-linejoin:round;stroke-opacity:1;stroke-miterlimit:4;stroke-dasharray:none"
         d="m 319.58545,224.36041 -0.0731,-57.66131 20.68206,32.30203 20.90133,-32.15587 0.29232,57.369 z"
         id="path1734"
         sodipodi:nodetypes="cccccc" />
      <path
         id="path36313"
         style="fill:#880000;fill-opacity:1;stroke:none;stroke-width:2.5;stroke-linecap:round;stroke-linejoin:round;stroke-opacity:1;stroke-miterlimit:4;stroke-dasharray:none"
         d="m 413.71737,21.770423 c -10.87755,0.01886 -20.40707,0.852337 -28.06597,2.639116 11.29729,4.486455 25.356,11.869452 31.05288,16.745749 -34.75149,-16.165437 -74.70188,-23.027965 -78.12289,-12.55014 -8.21616,25.164449 20.47677,76.171782 70.44947,89.066402 -24.94537,-2.80515 -74.18216,-24.917065 -77.86865,-82.033756 -69.59649,-2.384785 -137.76209,25.69628 -209.08439,88.163096 73.36047,-20.98684 123.51676,-7.68773 153.62214,33.507 l 0.18294,-37.49074 43.33689,-0.14624 20.49952,37.71036 20.20705,-37.60029 44.8722,0.0362 0.0367,72.57025 7.63675,-4.89686 c 15.29011,-27.69857 46.69985,-24.63362 88.83075,-26.01702 -12.662,-24.14206 -9.14468,-16.80286 61.86342,-34.23822 34.18422,-8.39361 56.2438,-10.40606 64.23845,-17.43046 4.07443,-3.57996 7.25554,-11.858037 9.28159,-16.260505 1.94384,-4.223795 4.74898,-9.531075 4.20235,-13.30048 -0.37211,-2.565945 -0.78965,-4.173423 -4.82349,-6.102469 -1.66589,-0.79666 -6.53034,-2.898801 -7.71012,-1.2423 -1.67595,2.353156 -6.65024,17.356563 -6.65024,17.356563 -0.0138,-4.950984 -0.007,-10.097376 3.87315,-19.512505 C 570.50546,45.310633 472.45654,21.668583 413.71737,21.770423 Z m -60.04541,19.064986 c 5.01692,0.08782 17.93922,6.53224 24.01353,8.860441 8.24333,3.159577 23.01732,15.823472 24.70131,18.854663 -1.57882,-0.350853 -13.48975,-7.243879 -14.17793,-5.9924 -0.51234,0.931701 8.01105,11.446045 8.18501,13.446726 -3.03919,-2.785941 -13.98333,-8.884902 -15.0182,-7.417636 -0.82457,1.16913 11.98544,14.351804 13.11807,16.333888 0,0 -8.23415,-3.764857 -8.76948,-2.813783 -0.8763,1.556774 12.05817,16.881657 12.05817,16.881657 -11.01645,-4.882216 -51.39608,-37.207433 -46.11399,-57.186173 0.12891,-0.487527 0.51615,-0.774242 1.11001,-0.897102 0.25982,-0.05375 0.55904,-0.07614 0.8935,-0.07028 z m 121.79411,14.424443 c 0.58988,-0.0011 1.18094,0.0024 1.76114,0.01188 1.54721,0.02545 3.01837,0.09315 4.19042,0.228925 17.63506,2.042851 60.04803,12.195641 60.04803,12.195641 l -7.23471,3.617349 c -23.85817,1.290031 -46.56624,4.607001 -53.33008,-11.368815 l -13.64258,-4.444175 c 0,0 4.07856,-0.233539 8.20778,-0.24081 z m 68.89347,56.568118 c -45.37728,10.92997 -53.59577,18.85133 -59.84131,22.53093 -3.51137,2.06874 -1.58086,13.65303 -1.13689,20.56722 0,0 -6.80315,-11.86574 -6.51121,-18.08675 0.32621,-6.952 28.11574,-19.95214 67.48941,-25.0114 z" />
      <path
         style="fill:#880000;fill-opacity:1;stroke:none;stroke-width:2.5;stroke-linecap:round;stroke-linejoin:round;stroke-opacity:1;stroke-miterlimit:4;stroke-dasharray:none"
         d="m 319.58545,224.36041 -0.0731,-57.66131 20.68206,32.30203 20.90133,-32.15587 0.29232,57.369 z"
         id="path36315"
         sodipodi:nodetypes="cccccc" />
    </g>
  </g>
</svg>
