<?xml version="1.0" encoding="UTF-8" standalone="no"?>
<svg
   preserveAspectRatio="xMidYMid"
   width="18.889mm"
   height="19.030951mm"
   viewBox="0 0 1205.9364 1215"
   version="1.1"
   id="svg856"
   sodipodi:docname="logo-autoit.svg"
   inkscape:version="1.1 (c68e22c387, 2021-05-23)"
   xmlns:inkscape="http://www.inkscape.org/namespaces/inkscape"
   xmlns:sodipodi="http://sodipodi.sourceforge.net/DTD/sodipodi-0.dtd"
   xmlns="http://www.w3.org/2000/svg"
   xmlns:svg="http://www.w3.org/2000/svg">
  <sodipodi:namedview
     id="namedview858"
     pagecolor="#ffffff"
     bordercolor="#666666"
     borderopacity="1.0"
     inkscape:pageshadow="2"
     inkscape:pageopacity="0.0"
     inkscape:pagecheckerboard="0"
     showgrid="false"
     inkscape:zoom="4.8950217"
     inkscape:cx="101.12315"
     inkscape:cy="36.057041"
     inkscape:window-width="1920"
     inkscape:window-height="1009"
     inkscape:window-x="-8"
     inkscape:window-y="-8"
     inkscape:window-maximized="1"
     inkscape:current-layer="svg856"
     units="mm"
     width="55.5109mm"
     inkscape:document-units="mm" />
  <defs
     id="defs844">
    <style
       type="text/css"
       id="style842">
      .cls-1 {
        fill: #5d83ac;
      }

      .cls-2 {
        fill: #f0f0f0;
        fill-rule: evenodd;
      }
    </style>
  </defs>
  <rect
     style="fill:#254768;fill-opacity:1;stroke:none;stroke-width:73.4694;stroke-linecap:square"
     id="rect962"
     width="1205.9369"
     height="1214.9994"
     x="5.6843419e-14"
     y="0"
     ry="0" />
  <circle
     cx="603"
     cy="611"
     r="410"
     class="cls-1"
     id="circle846" />
  <path
     d="M 603,1123 C 320.23,1123 91,893.77 91,611 91,328.23 320.23,99 603,99 c 282.77,0 512,229.23 512,512 0,282.77 -229.23,512 -512,512 z m 0,-922 c -226.437,0 -410,183.563 -410,410 0,226.437 183.563,410 410,410 226.437,0 410,-183.563 410,-410 0,-226.437 -183.563,-410 -410,-410 z"
     class="cls-2"
     id="path848" />
  <path
     d="M 916.642,763 682.562,424.2 c -8.217,-11.944 -18.2,-21.927 -29.96,-29.96 -11.76,-8.024 -26.417,-12.04 -43.96,-12.04 -18.297,0 -33.417,4.296 -45.36,12.88 -11.953,8.592 -21.84,18.296 -29.68,29.12 L 293.362,763 h 137.2 l 175.84,-248.64 67.2,99.12 c 6.343,8.96 12.967,18.576 19.88,28.84 6.903,10.273 12.967,18.76 18.2,25.48 -8.96,-0.744 -19.513,-1.12 -31.64,-1.12 -12.137,0 -23.8,0 -35,0 h -94.08 l -70,96.32 z"
     class="cls-2"
     id="path850" />
</svg>
