<?xml version="1.0" encoding="UTF-8" standalone="no"?>
<!-- Created with Inkscape (http://www.inkscape.org/) -->

<svg
   version="1.1"
   id="svg824"
   width="1825.015"
   height="880"
   viewBox="0 0 1825.015 880"
   sodipodi:docname="Gimp-Logo.svg"
   inkscape:version="1.1 (c68e22c387, 2021-05-23)"
   xmlns:inkscape="http://www.inkscape.org/namespaces/inkscape"
   xmlns:sodipodi="http://sodipodi.sourceforge.net/DTD/sodipodi-0.dtd"
   xmlns:xlink="http://www.w3.org/1999/xlink"
   xmlns="http://www.w3.org/2000/svg"
   xmlns:svg="http://www.w3.org/2000/svg">
  <defs
     id="defs828">
    <linearGradient
       id="linearGradient8939"
       y2="31.57"
       xlink:href="#linearGradient8524"
       gradientUnits="userSpaceOnUse"
       y1="23.362"
       x2="5.9846001"
       x1="6.3052001"
       gradientTransform="rotate(-36.832655,-88.330882,-226.1772)" />
    <linearGradient
       id="linearGradient8935"
       y2="46.986"
       xlink:href="#linearGradient8524"
       gradientUnits="userSpaceOnUse"
       y1="19.111"
       x2="39.525002"
       x1="14.969"
       gradientTransform="translate(133.22921,-105.4328)" />
    <linearGradient
       id="linearGradient8524">
      <stop
         id="stop8526"
         stop-color="#fff"
         offset="0" />
      <stop
         id="stop8528"
         stop-color="#fff"
         stop-opacity="0"
         offset="1" />
    </linearGradient>
  </defs>
  <sodipodi:namedview
     id="namedview826"
     pagecolor="#ffffff"
     bordercolor="#666666"
     borderopacity="1.0"
     inkscape:pageshadow="2"
     inkscape:pageopacity="0.0"
     inkscape:pagecheckerboard="0"
     showgrid="false"
     inkscape:zoom="0.35355339"
     inkscape:cx="438.4062"
     inkscape:cy="106.06602"
     inkscape:window-width="1920"
     inkscape:window-height="1009"
     inkscape:window-x="-8"
     inkscape:window-y="-8"
     inkscape:window-maximized="1"
     inkscape:current-layer="g830"
     width="1825.015px" />
  <g
     inkscape:groupmode="layer"
     inkscape:label="Image"
     id="g830">
    <rect
       style="opacity:1;fill:#000000;fill-opacity:1;stroke:none;stroke-width:6.96825;stroke-linecap:round;stroke-linejoin:round"
       id="rect40622"
       width="1825.015"
       height="880"
       x="0"
       y="0" />
    <g
       id="g41723"
       transform="translate(855.01493,250.00003)">
      <g
         id="g41599"
         style="fill:#fdfdfd;fill-opacity:1">
        <path
           id="rect35388-49-6-9"
           style="opacity:1;fill:#fdfdfd;fill-opacity:1;stroke:none;stroke-width:135.649;stroke-linecap:round;stroke-linejoin:round"
           d="M 514.43334,4.145925 V 376.0808 h 50.48958 V 127.20218 c 0.1403,-4.11392 3.07923,-2.72892 3.53054,-0.1685 12.11794,82.52403 36.4064,249.04706 36.4064,249.04706 h 6.69826 9.21822 6.69825 c 0,0 24.28846,-166.52303 36.40641,-249.04706 0.4513,-2.56049 3.3902,-3.94549 3.53053,0.1685 V 376.0808 h 50.48958 V 4.145925 H 651.7995 L 616.17048,192.26731 580.53495,4.145925 Z" />
        <path
           id="rect32185"
           style="opacity:1;fill:#fdfdfd;fill-opacity:1;stroke:none;stroke-width:48.6609;stroke-linecap:round;stroke-linejoin:round"
           d="M 301.33276,-7.8158606e-7 C 264.55644,-7.8158606e-7 234.9461,35.104017 234.9461,78.707813 V 301.29218 c 0,43.60383 26.43675,78.70782 59.27381,78.70782 h 4.17183 c 16.66317,0 31.6563,-9.06804 42.40506,-23.67065 l 6.28366,19.11013 h 32.24104 c 0,-64.70321 0,-130.07069 0,-185.52371 -25.39472,-0.20663 -50.35525,0.20099 -75.5595,0.20099 v 46.43437 h 22.49165 v 75.45585 c 0,10.33579 -8.32087,18.65667 -18.65666,18.65667 -10.3358,0 -18.65667,-8.32088 -18.65667,-18.65667 V 71.543288 c 0,-10.335793 8.32087,-18.656666 18.65667,-18.656666 10.33579,0 18.65666,8.320873 18.65666,18.656666 V 137.01651 H 379.3215 V 78.707978 c 0,-43.603795 -29.60383,-78.70781294456 -66.38015,-78.70781294456 z"
           sodipodi:nodetypes="ssssscccccccssssssccsss" />
        <rect
           style="opacity:1;fill:#fdfdfd;fill-opacity:1;stroke:none;stroke-width:167.195;stroke-linecap:round;stroke-linejoin:round"
           id="rect35388-49"
           width="55.136158"
           height="371.93311"
           x="419.45358"
           y="4.1459165" />
        <path
           id="rect35388-49-5"
           style="opacity:1;fill:#fdfdfd;fill-opacity:1;stroke:none;stroke-width:167.195;stroke-linecap:round;stroke-linejoin:round"
           d="M 758.881,4.145925 V 376.0808 h 55.14082 V 227.01534 h 10.70816 C 871.96849,227.01534 910,182.08743 910,126.28231 V 104.69756 C 910,48.892437 871.96849,3.9645324 824.72998,3.9645324 802.68264,4.0239021 781.04522,4.1459581 758.881,4.1459581 Z m 55.14082,55.931125 h 6.82134 c 17.91537,0 32.33822,14.792663 32.33822,33.167406 v 44.490954 c 0,18.37475 -14.42285,33.16741 -32.33822,33.16741 h -6.82134 z"
           sodipodi:nodetypes="ccccssscccsssscc" />
      </g>
      <g
         id="g41627"
         transform="matrix(37.999808,0,0,37.999808,-6313.8281,3347.4895)">
        <path
           id="path8887"
           d="m 151.23171,-91.0328 c 0,0 2.1941,5.0442 6.6237,4.9286 9.2828,-0.2443 10.936,-5.7322 11.939,-6.9881 4.1614,31.246 -22.763,17.792 -22.014,12.88 4.7742,-1.4663 3.0735,-2.0146 3.0735,-2.0146 z"
           fill="#ffffff"
           style="fill-rule:evenodd" />
        <path
           id="path8889"
           d="m 162.11721,-79.5328 c 0,0 0.59642,0.5191 0.94575,0.9926 -1.323,1.0721 -3.5843,1.9358 -8.0233,1.0042 2.2408,0.8302 4.1285,1.209 5.5868,1.114 -0.88529,0.3088 -2.0003,0.5332 -3.437,0.608 3.2035,0.3116 5.5919,-0.3129 6.4359,-1.6239 0.2226,0.2507 0.4354,0.6802 0.64627,1.2312 0.14245,-0.9434 0.48478,-1.3973 -0.0595,-2.1347 -0.54584,-0.7393 -2.0951,-1.1914 -2.0951,-1.1914 z"
           style="fill-rule:evenodd" />
        <ellipse
           id="path8893"
           transform="matrix(0.79727137,-0.60362104,0.56648935,0.82406906,0,0)"
           cy="25.409285"
           stroke-width="0.33526"
           rx="2.9019949"
           ry="4.1491046"
           stroke-miterlimit="10"
           stroke="#ffffff"
           cx="168.45035"
           style="fill-rule:evenodd" />
        <ellipse
           id="path8897"
           rx="1.1644"
           ry="1.4664"
           cy="-82.232849"
           cx="147.35181"
           fill="#ffffff"
           style="fill-rule:evenodd" />
        <ellipse
           id="path8899"
           cy="-83.332825"
           stroke-width="0.38033"
           fill="#ffffff"
           rx="2.6243999"
           ry="2.855"
           stroke-miterlimit="10"
           stroke="#000000"
           cx="153.98981"
           style="fill-rule:evenodd" />
        <path
           id="path8907"
           d="m 154.69131,-84.4328 a 1.7455,1.8319 0 0 0 -1.7457,1.832 1.7455,1.8319 0 0 0 1.7457,1.8304 1.7455,1.8319 0 0 0 1.7457,-1.8304 1.7455,1.8319 0 0 0 -1.7457,-1.832 z m -0.65675,0.5011 a 0.69004,0.72417 0 0 1 0.68859,0.7244 0.69004,0.72417 0 0 1 -0.68859,0.7244 0.69004,0.72417 0 0 1 -0.69024,-0.7244 0.69004,0.72417 0 0 1 0.69024,-0.7244 z"
           style="fill-rule:evenodd" />
        <ellipse
           id="path8901"
           cy="-82.732849"
           stroke-width="0.33508"
           fill="#ffffff"
           rx="3.1440001"
           ry="3.2995"
           stroke-miterlimit="10"
           stroke="#000000"
           cx="159.76021"
           style="fill-rule:evenodd" />
        <path
           id="path8903"
           d="m 160.53121,-84.6328 a 2.2349,2.3454 0 0 0 -2.2344,2.345 2.2349,2.3454 0 0 0 2.2344,2.3465 2.2349,2.3454 0 0 0 2.236,-2.3465 2.2349,2.3454 0 0 0 -2.236,-2.345 z m -0.6185,0.4733 a 1.048,1.0998 0 0 1 1.0475,1.101 1.048,1.0998 0 0 1 -1.0475,1.0993 1.048,1.0998 0 0 1 -1.0475,-1.0993 1.048,1.0998 0 0 1 1.0475,-1.101 z"
           style="fill-rule:evenodd" />
      </g>
    </g>
  </g>
</svg>
