<?xml version="1.0" encoding="UTF-8" standalone="no"?>
<svg
   preserveAspectRatio="xMidYMid"
   width="55.510899mm"
   height="19.030951mm"
   viewBox="0 0 3543.9998 1215"
   version="1.1"
   id="svg856"
   sodipodi:docname="logo-autoit-wordmark.svg"
   inkscape:version="1.1 (c68e22c387, 2021-05-23)"
   xmlns:inkscape="http://www.inkscape.org/namespaces/inkscape"
   xmlns:sodipodi="http://sodipodi.sourceforge.net/DTD/sodipodi-0.dtd"
   xmlns="http://www.w3.org/2000/svg"
   xmlns:svg="http://www.w3.org/2000/svg">
  <sodipodi:namedview
     id="namedview858"
     pagecolor="#ffffff"
     bordercolor="#666666"
     borderopacity="1.0"
     inkscape:pageshadow="2"
     inkscape:pageopacity="0.0"
     inkscape:pagecheckerboard="0"
     showgrid="false"
     inkscape:zoom="4.8950217"
     inkscape:cx="102.96175"
     inkscape:cy="36.057041"
     inkscape:window-width="1920"
     inkscape:window-height="1009"
     inkscape:window-x="-8"
     inkscape:window-y="-8"
     inkscape:window-maximized="1"
     inkscape:current-layer="svg856"
     units="mm"
     width="55.5109mm"
     inkscape:document-units="mm" />
  <defs
     id="defs844">
    <style
       type="text/css"
       id="style842">
      .cls-1 {
        fill: #5d83ac;
      }

      .cls-2 {
        fill: #f0f0f0;
        fill-rule: evenodd;
      }
    </style>
  </defs>
  <rect
     style="fill:#254768;fill-opacity:1;stroke:none;stroke-width:125.948;stroke-linecap:square"
     id="rect962"
     width="3544.0015"
     height="1214.9994"
     x="5.6843419e-14"
     y="0" />
  <g
     id="g854">
    <circle
       cx="603"
       cy="611"
       r="410"
       class="cls-1"
       id="circle846" />
    <path
       d="M 603,1123 C 320.23,1123 91,893.77 91,611 91,328.23 320.23,99 603,99 c 282.77,0 512,229.23 512,512 0,282.77 -229.23,512 -512,512 z m 0,-922 c -226.437,0 -410,183.563 -410,410 0,226.437 183.563,410 410,410 226.437,0 410,-183.563 410,-410 0,-226.437 -183.563,-410 -410,-410 z"
       class="cls-2"
       id="path848" />
    <path
       d="M 916.642,763 682.562,424.2 c -8.217,-11.944 -18.2,-21.927 -29.96,-29.96 -11.76,-8.024 -26.417,-12.04 -43.96,-12.04 -18.297,0 -33.417,4.296 -45.36,12.88 -11.953,8.592 -21.84,18.296 -29.68,29.12 L 293.362,763 h 137.2 l 175.84,-248.64 67.2,99.12 c 6.343,8.96 12.967,18.576 19.88,28.84 6.903,10.273 12.967,18.76 18.2,25.48 -8.96,-0.744 -19.513,-1.12 -31.64,-1.12 -12.137,0 -23.8,0 -35,0 h -94.08 l -70,96.32 z"
       class="cls-2"
       id="path850" />
    <path
       d="M 3365.836,496.059 H 3231.997 V 773.26 h -115.92 V 496.059 h -175.84 l 75.04,-97.439 h 425.6 z M 2787.363,398.62 h 115.92 v 374.64 h -115.92 z m -334.318,380.8 c -91.84,0 -160.44,-15.488 -205.8,-46.48 -45.36,-30.984 -68.04,-80.08 -68.04,-147.28 0,-66.824 22.767,-115.728 68.32,-146.72 45.543,-30.984 114.047,-46.48 205.52,-46.48 91.087,0 159.503,15.496 205.24,46.48 45.727,30.992 68.6,79.896 68.6,146.72 0,67.2 -22.777,116.296 -68.32,147.28 -45.553,30.992 -114.057,46.48 -205.52,46.48 z m 150.08,-242.76 c -5.6,-12.504 -14.657,-22.208 -27.16,-29.12 -12.513,-6.904 -28.84,-11.568 -49,-14 -20.16,-2.424 -44.8,-3.641 -73.92,-3.641 -29.12,0 -53.76,1.217 -73.92,3.641 -20.16,2.432 -36.497,7.096 -49,14 -12.513,6.912 -21.56,16.616 -27.16,29.12 -5.6,12.512 -8.4,28.84 -8.4,49 0,20.16 2.8,36.496 8.4,49 5.6,12.512 14.647,22.312 27.16,29.4 12.503,7.096 28.84,11.856 49,14.28 20.16,2.432 44.8,3.64 73.92,3.64 29.12,0 53.76,-1.208 73.92,-3.64 20.16,-2.424 36.487,-7.184 49,-14.28 12.503,-7.088 21.56,-16.888 27.16,-29.4 5.6,-12.504 8.399,-28.84 8.399,-49 0,-20.16 -2.799,-36.488 -8.399,-49 z M 1999.998,496.059 V 773.26 h -115.92 V 496.059 h -175.84 l 75.04,-97.439 h 425.6 l -75.04,97.439 z M 1444.483,779.42 c -45.177,0 -84,-3.553 -116.48,-10.641 -32.481,-7.087 -59.273,-17.727 -80.36,-31.919 -21.097,-14.184 -36.593,-31.824 -46.481,-52.92 -9.896,-21.088 -14.839,-45.824 -14.839,-74.2 V 398.62 h 115.36 v 211.12 c 0,13.816 1.863,25.392 5.6,34.72 3.727,9.336 10.727,16.896 21,22.68 10.263,5.792 24.727,9.896 43.4,12.319 18.663,2.433 42.927,3.641 72.8,3.641 22.4,0 41.063,-1.304 55.999,-3.92 14.928,-2.608 26.881,-6.904 35.84,-12.88 8.961,-5.968 15.4,-13.624 19.321,-22.96 3.92,-9.328 5.879,-20.528 5.879,-33.6 V 398.62 h 116.481 v 211.12 c 0,113.119 -77.841,169.68 -233.52,169.68 z"
       class="cls-2"
       id="path852" />
  </g>
</svg>
