<?xml version="1.0" encoding="UTF-8" standalone="no"?>
<!-- Created with Inkscape (http://www.inkscape.org/) -->

<svg
   version="1.1"
   id="svg824"
   width="1825.015"
   height="880"
   viewBox="0 0 1825.015 880"
   sodipodi:docname="logo-gimp2.svg"
   inkscape:version="1.1 (c68e22c387, 2021-05-23)"
   xmlns:inkscape="http://www.inkscape.org/namespaces/inkscape"
   xmlns:sodipodi="http://sodipodi.sourceforge.net/DTD/sodipodi-0.dtd"
   xmlns:xlink="http://www.w3.org/1999/xlink"
   xmlns="http://www.w3.org/2000/svg"
   xmlns:svg="http://www.w3.org/2000/svg">
  <defs
     id="defs828">
    <linearGradient
       id="linearGradient8939"
       y2="31.57"
       xlink:href="#linearGradient8524"
       gradientUnits="userSpaceOnUse"
       y1="23.362"
       x2="5.9846001"
       x1="6.3052001"
       gradientTransform="rotate(-36.832655,-88.330882,-226.1772)" />
    <linearGradient
       id="linearGradient8935"
       y2="46.986"
       xlink:href="#linearGradient8524"
       gradientUnits="userSpaceOnUse"
       y1="19.111"
       x2="39.525002"
       x1="14.969"
       gradientTransform="translate(133.22921,-105.4328)" />
    <linearGradient
       id="linearGradient8524">
      <stop
         id="stop8526"
         stop-color="#fff"
         offset="0" />
      <stop
         id="stop8528"
         stop-color="#fff"
         stop-opacity="0"
         offset="1" />
    </linearGradient>
  </defs>
  <sodipodi:namedview
     id="namedview826"
     pagecolor="#ffffff"
     bordercolor="#666666"
     borderopacity="1.0"
     inkscape:pageshadow="2"
     inkscape:pageopacity="0.0"
     inkscape:pagecheckerboard="0"
     showgrid="false"
     inkscape:zoom="0.35355339"
     inkscape:cx="680.23672"
     inkscape:cy="445.47727"
     inkscape:window-width="1920"
     inkscape:window-height="1009"
     inkscape:window-x="-8"
     inkscape:window-y="-8"
     inkscape:window-maximized="1"
     inkscape:current-layer="g830"
     width="1825.015px" />
  <g
     inkscape:groupmode="layer"
     inkscape:label="Image"
     id="g830">
    <rect
       style="opacity:1;fill:#ffffff;fill-opacity:1;stroke:none;stroke-width:6.96825;stroke-linecap:round;stroke-linejoin:round"
       id="rect40622"
       width="1825.015"
       height="880"
       x="0"
       y="0" />
    <path
       id="rect35388-49-6-9"
       style="fill:#000000;fill-opacity:1;stroke:none;stroke-width:135.649;stroke-linecap:round;stroke-linejoin:round;stroke-opacity:1"
       d="m 1369.4483,254.14596 v 371.93487 h 50.4896 V 377.20221 c 0.1403,-4.11392 3.0792,-2.72892 3.5305,-0.1685 12.1179,82.52403 36.4064,249.04706 36.4064,249.04706 h 6.6982 9.2183 6.6982 c 0,0 24.2885,-166.52303 36.4064,-249.04706 0.4513,-2.56049 3.3902,-3.94549 3.5306,0.1685 v 248.87862 h 50.4895 V 254.14596 h -66.1016 l -35.629,188.12138 -35.6355,-188.12138 z" />
    <path
       id="rect32185"
       style="fill:#000000;fill-opacity:1;stroke:none;stroke-width:48.6609;stroke-linecap:round;stroke-linejoin:round;stroke-opacity:1"
       d="m 1156.3477,250.00003 c -36.7763,0 -66.3867,35.10402 -66.3867,78.70781 v 222.58437 c 0,43.60383 26.4368,78.70782 59.2738,78.70782 h 4.1719 c 16.6631,0 31.6563,-9.06804 42.405,-23.67065 l 6.2837,19.11013 h 32.241 c 0,-64.70321 0,-130.07069 0,-185.52371 -25.3947,-0.20663 -50.3552,0.20099 -75.5595,0.20099 v 46.43437 h 22.4917 v 75.45585 c 0,10.33579 -8.3209,18.65667 -18.6567,18.65667 -10.3358,0 -18.6567,-8.32088 -18.6567,-18.65667 V 321.54332 c 0,-10.33579 8.3209,-18.65667 18.6567,-18.65667 10.3358,0 18.6567,8.32088 18.6567,18.65667 v 65.47322 h 53.0678 v -58.30853 c 0,-43.6038 -29.6038,-78.70781 -66.3801,-78.70781 z"
       sodipodi:nodetypes="ssssscccccccssssssccsss" />
    <rect
       style="fill:#000000;fill-opacity:1;stroke:none;stroke-width:167.195;stroke-linecap:round;stroke-linejoin:round;stroke-opacity:1"
       id="rect35388-49"
       width="55.136158"
       height="371.93311"
       x="1274.4685"
       y="254.14595" />
    <path
       id="rect35388-49-5"
       style="fill:#000000;fill-opacity:1;stroke:none;stroke-width:167.195;stroke-linecap:round;stroke-linejoin:round;stroke-opacity:1"
       d="m 1613.8959,254.14596 v 371.93487 h 55.1408 V 477.01537 h 10.7082 c 47.2385,0 85.27,-44.92791 85.27,-100.73303 v -21.58475 c 0,-55.80512 -38.0315,-100.73303 -85.27,-100.73303 -22.0473,0.0594 -43.6847,0.18143 -65.849,0.18143 z m 55.1408,55.93112 h 6.8214 c 17.9154,0 32.3382,14.79266 32.3382,33.16741 v 44.49095 c 0,18.37475 -14.4228,33.16741 -32.3382,33.16741 h -6.8214 z"
       sodipodi:nodetypes="ccccssscccsssscc" />
    <path
       id="path8887"
       d="m 287.96274,138.26058 c 0,0 83.37538,191.67863 251.69933,187.28585 C 892.40669,316.26308 955.22797,107.72393 993.34178,59.999974 1151.4742,1247.342 128.35215,736.09256 156.81401,549.4375 338.23269,493.71838 273.60642,472.88309 273.60642,472.88309 Z"
       fill="#ffffff"
       style="fill-rule:evenodd;stroke-width:12.733;stroke:#000000;stroke-opacity:1;stroke-miterlimit:4;stroke-dasharray:none" />
    <path
       id="path8889"
       d="m 701.60965,575.25837 c 0,0 22.66385,19.7257 35.93832,37.71861 -50.27374,40.73959 -136.20271,73.56003 -304.88386,38.15941 85.14997,31.54744 156.88221,45.94176 212.29733,42.33178 -33.64085,11.73434 -76.01102,20.2615 -130.60534,23.10389 121.73238,11.84074 212.49113,-11.89014 244.56296,-61.70789 8.45876,9.52655 16.54512,25.84747 24.55814,46.78536 5.41307,-35.84902 18.42155,-53.09713 -2.26099,-81.11819 -20.74181,-28.09326 -79.6134,-45.27297 -79.6134,-45.27297 z"
       style="fill-rule:evenodd;stroke-width:37.9998" />
    <ellipse
       id="path8893"
       transform="matrix(0.79727137,-0.60362105,0.56648936,0.82406905,0,0)"
       cy="538.22076"
       stroke-width="12.7398"
       rx="110.27525"
       ry="157.66518"
       stroke-miterlimit="10"
       stroke="#ffffff"
       cx="-142.15784"
       style="fill-rule:evenodd" />
    <ellipse
       id="path8897"
       rx="44.246975"
       ry="55.722919"
       cy="472.65701"
       cx="140.52716"
       fill="#ffffff"
       style="fill-rule:evenodd;stroke-width:37.9998" />
    <ellipse
       id="path8899"
       cy="430.85815"
       stroke-width="14.4525"
       fill="#ffffff"
       rx="99.726692"
       ry="108.48946"
       stroke-miterlimit="10"
       stroke="#000000"
       cx="392.7699"
       style="fill-rule:evenodd" />
    <path
       id="path8907"
       d="m 419.42688,389.05931 a 66.328665,69.611848 0 0 0 -66.33627,69.61565 66.328665,69.611848 0 0 0 66.33627,69.55485 66.328665,69.611848 0 0 0 66.33626,-69.55485 66.328665,69.611848 0 0 0 -66.33626,-69.61565 z m -24.95637,19.0417 a 26.221388,27.518321 0 0 1 26.16628,27.52707 26.221388,27.518321 0 0 1 -26.16628,27.52706 26.221388,27.518321 0 0 1 -26.22899,-27.52706 26.221388,27.518321 0 0 1 26.22899,-27.52707 z"
       style="fill-rule:evenodd;stroke-width:37.9998" />
    <ellipse
       id="path8901"
       cy="453.6571"
       stroke-width="12.733"
       fill="#ffffff"
       rx="119.4714"
       ry="125.38036"
       stroke-miterlimit="10"
       stroke="#000000"
       cx="612.04401"
       style="fill-rule:evenodd;stroke-width:12.733;stroke-miterlimit:10;stroke-dasharray:none" />
    <path
       id="path8903"
       d="m 641.34196,381.45935 a 84.925771,89.12475 0 0 0 -84.90677,89.10955 84.925771,89.12475 0 0 0 84.90677,89.16655 84.925771,89.12475 0 0 0 84.96757,-89.16655 84.925771,89.12475 0 0 0 -84.96757,-89.10955 z m -23.50288,17.98531 a 39.823799,41.792189 0 0 1 39.8048,41.83779 39.823799,41.792189 0 0 1 -39.8048,41.77319 39.823799,41.792189 0 0 1 -39.8048,-41.77319 39.823799,41.792189 0 0 1 39.8048,-41.83779 z"
       style="fill-rule:evenodd;stroke-width:37.9998" />
  </g>
</svg>
