<?xml version="1.0" encoding="UTF-8" standalone="no"?>
<!-- Created with Inkscape (http://www.inkscape.org/) -->

<svg
   width="90mm"
   height="50mm"
   viewBox="0 0 90 50"
   version="1.1"
   id="svg1018"
   inkscape:version="1.1 (c68e22c387, 2021-05-23)"
   sodipodi:docname="initials.svg"
   inkscape:export-filename="D:\developpement\mon-cv-full-stack\portfolio-front\public\images\icons\dp.png"
   inkscape:export-xdpi="76.498817"
   inkscape:export-ydpi="76.498817"
   xmlns:inkscape="http://www.inkscape.org/namespaces/inkscape"
   xmlns:sodipodi="http://sodipodi.sourceforge.net/DTD/sodipodi-0.dtd"
   xmlns="http://www.w3.org/2000/svg"
   xmlns:svg="http://www.w3.org/2000/svg">
  <sodipodi:namedview
     id="namedview1020"
     pagecolor="#ffffff"
     bordercolor="#666666"
     borderopacity="1.0"
     inkscape:pageshadow="2"
     inkscape:pageopacity="0"
     inkscape:pagecheckerboard="true"
     inkscape:document-units="mm"
     showgrid="false"
     inkscape:zoom="1.5322672"
     inkscape:cx="311.62973"
     inkscape:cy="-45.357626"
     inkscape:window-width="1920"
     inkscape:window-height="1009"
     inkscape:window-x="-8"
     inkscape:window-y="-8"
     inkscape:window-maximized="1"
     inkscape:current-layer="layer1" />
  <defs
     id="defs1015" />
  <g
     inkscape:label="Calque 1"
     inkscape:groupmode="layer"
     id="layer1">
    <g
       inkscape:groupmode="layer"
       id="layer2"
       inkscape:label="Layer 1"
       style="display:none">
      <g
         id="g1216"
         transform="translate(2.6436001e-7,6.4468384e-4)">
        <rect
           style="opacity:1;fill:#10154a;fill-opacity:1;stroke:none;stroke-width:2.82272;stroke-linecap:round;stroke-linejoin:round"
           id="rect1274"
           width="85"
           height="38.081001"
           x="-2.6436001e-07"
           y="46.918354" />
        <text
           xml:space="preserve"
           style="font-style:normal;font-weight:normal;font-size:12.3472px;line-height:1.25;font-family:sans-serif;text-align:center;letter-spacing:2.26219px;text-anchor:middle;fill:#e7e7e7;fill-opacity:1;stroke:#e7e7e7;stroke-width:0.865;stroke-miterlimit:4;stroke-dasharray:none;stroke-opacity:1"
           x="42.036968"
           y="62.814217"
           id="text8209"><tspan
             sodipodi:role="line"
             id="tspan8207"
             style="font-style:normal;font-variant:normal;font-weight:bold;font-stretch:normal;font-size:12.3472px;font-family:Comfortaa;-inkscape-font-specification:'Comfortaa, Bold';font-variant-ligatures:normal;font-variant-caps:normal;font-variant-numeric:normal;font-variant-east-asian:normal;text-align:center;text-anchor:middle;fill:#e7e7e7;fill-opacity:1;stroke:#e7e7e7;stroke-width:0.865;stroke-miterlimit:4;stroke-dasharray:none;stroke-opacity:1"
             x="42.036968"
             y="62.814217">Didier</tspan><tspan
             sodipodi:role="line"
             style="font-style:normal;font-variant:normal;font-weight:bold;font-stretch:normal;font-size:12.3472px;font-family:Comfortaa;-inkscape-font-specification:'Comfortaa, Bold';font-variant-ligatures:normal;font-variant-caps:normal;font-variant-numeric:normal;font-variant-east-asian:normal;text-align:center;text-anchor:middle;fill:#e7e7e7;fill-opacity:1;stroke:#e7e7e7;stroke-width:0.865;stroke-miterlimit:4;stroke-dasharray:none;stroke-opacity:1"
             x="43.168064"
             y="78.623192"
             id="tspan8211">PASCAREL</tspan></text>
      </g>
    </g>
    <path
       style="fill:#10154a;fill-opacity:1;stroke:none;stroke-width:0.0380197;stroke-linecap:round;stroke-linejoin:round;stroke-miterlimit:4;stroke-dasharray:none;stroke-opacity:1"
       d="M 12.931223,44.041592 C 33.794658,44.78765 63.76191,15.979387 30.471933,7.7422917 -4.601251,0.04336675 -3.9901732,16.403335 6.9432327,23.703527 17.831994,30.973912 17.445852,39.863664 20.013783,39.662643 20.459692,29.979102 19.305825,19.203536 15.583696,12.852594 c 1.844809,14.037517 2.290158,22.071993 2.290158,22.071993 0,0 -0.458111,-4.177865 -12.6224985,-13.501078 C -2.4718813,15.504152 1.8671589,3.7503377 26.508782,9.1349057 60.568433,15.454728 32.425358,44.804978 9.0008976,41.844286 -3.0587867,40.320024 7.5062354,30.710615 7.5062354,30.710615 34.447115,5.2004407 101.45466,40.085468 87.873382,12.699767 79.912726,-3.3523451 37.575007,11.894096 50.098978,23.613418 c 7.512013,7.029377 16.285953,21.051746 17.390804,20.648322 0.7906,-4.888384 -3.411405,-19.868407 -6.831325,-27.820906 -0.225189,9.857676 3.888911,23.497801 3.888911,23.497801 0,0 -11.415903,-13.86428 -13.45724,-16.008374 C 41.926154,14.304997 77.073151,-0.87472045 85.88703,14.140133 96.703183,32.565954 30.361052,6.7480497 4.8215159,32.198799 2.6715081,34.341332 -3.7482197,43.542509 12.931223,44.041558 Z"
       id="path857-0-5"
       sodipodi:nodetypes="ccscccscscsscccssscc"
       inkscape:export-filename="D:\developpement\mon-cv-full-stack\portfolio-front\public\images\icons\path857-0-5.png"
       inkscape:export-xdpi="76.498817"
       inkscape:export-ydpi="76.498817" />
  </g>
</svg>
