<?xml version="1.0" encoding="UTF-8" standalone="no"?>
<!-- Created with Inkscape (http://www.inkscape.org/) -->

<svg
   version="1.1"
   id="svg62281"
   xml:space="preserve"
   width="768"
   height="768"
   viewBox="0 0 768 768"
   sodipodi:docname="icon-github.svg"
   inkscape:version="1.1 (c68e22c387, 2021-05-23)"
   xmlns:inkscape="http://www.inkscape.org/namespaces/inkscape"
   xmlns:sodipodi="http://sodipodi.sourceforge.net/DTD/sodipodi-0.dtd"
   xmlns="http://www.w3.org/2000/svg"
   xmlns:svg="http://www.w3.org/2000/svg"><defs
     id="defs62285"><clipPath
       clipPathUnits="userSpaceOnUse"
       id="clipPath62297"><path
         d="M 0,576 H 576 V 0 H 0 Z"
         id="path62295" /></clipPath></defs><sodipodi:namedview
     id="namedview62283"
     pagecolor="#ffffff"
     bordercolor="#666666"
     borderopacity="1.0"
     inkscape:pageshadow="2"
     inkscape:pageopacity="0.0"
     inkscape:pagecheckerboard="0"
     showgrid="false"
     inkscape:zoom="0.57682292"
     inkscape:cx="107.48533"
     inkscape:cy="577.30022"
     inkscape:window-width="1314"
     inkscape:window-height="1032"
     inkscape:window-x="411"
     inkscape:window-y="71"
     inkscape:window-maximized="0"
     inkscape:current-layer="g62287" /><g
     id="g62287"
     inkscape:groupmode="layer"
     inkscape:label="GitHub_Logo"
     transform="matrix(1.3333333,0,0,-1.3333333,0,768)"><g
       id="g2940"
       transform="translate(-9.6907962e-5,5.7283117)"><g
         id="g62608"
         transform="matrix(2.9640061,0,0,2.9640061,288,461.2622)"
         style="fill:#0f0e0f;fill-opacity:1"><path
           d="m 0,0 c -33.347,0 -60.388,-27.035 -60.388,-60.388 0,-26.68 17.303,-49.316 41.297,-57.301 3.018,-0.559 4.126,1.31 4.126,2.905 0,1.439 -0.056,6.197 -0.082,11.243 -16.8,-3.653 -20.345,7.125 -20.345,7.125 -2.747,6.979 -6.705,8.836 -6.705,8.836 -5.479,3.748 0.413,3.671 0.413,3.671 6.064,-0.426 9.257,-6.224 9.257,-6.224 5.386,-9.231 14.127,-6.562 17.573,-5.019 0.543,3.902 2.107,6.567 3.834,8.075 -13.413,1.526 -27.513,6.705 -27.513,29.844 0,6.592 2.359,11.979 6.222,16.208 -0.627,1.522 -2.694,7.664 0.586,15.982 0,0 5.071,1.622 16.61,-6.191 4.817,1.338 9.983,2.009 15.115,2.033 5.132,-0.024 10.302,-0.695 15.128,-2.033 11.526,7.813 16.59,6.191 16.59,6.191 3.287,-8.318 1.22,-14.46 0.593,-15.982 3.872,-4.229 6.214,-9.616 6.214,-16.208 0,-23.195 -14.127,-28.301 -27.574,-29.796 2.166,-1.874 4.096,-5.549 4.096,-11.183 0,-8.08 -0.069,-14.583 -0.069,-16.572 0,-1.608 1.086,-3.491 4.147,-2.898 23.982,7.994 41.263,30.622 41.263,57.294 C 60.388,-27.035 33.351,0 0,0"
           style="fill:#0f0e0f;fill-opacity:1;fill-rule:evenodd;stroke:none"
           id="path62610" /></g><path
         d="m 176.80353,204.27338 c -0.39421,-0.89217 -1.79322,-1.15893 -3.06775,-0.54538 -1.30119,0.58391 -2.02738,1.79619 -1.60649,2.68836 0.38532,0.91291 1.78433,1.16781 3.08257,0.55723 1.29823,-0.58391 2.03923,-1.80804 1.59167,-2.70021"
         style="fill:#0f0e0f;fill-opacity:1;fill-rule:nonzero;stroke:none;stroke-width:2.96401"
         id="path62614" /><g
         id="g62616"
         transform="matrix(2.9640061,0,0,2.9640061,184.05438,196.18609)"
         style="fill:#0f0e0f;fill-opacity:1"><path
           d="M 0,0 C -0.288,-0.267 -0.852,-0.143 -1.233,0.279 -1.629,0.7 -1.702,1.264 -1.41,1.534 -1.113,1.801 -0.567,1.676 -0.172,1.255 0.224,0.829 0.301,0.27 0,0"
           style="fill:#0f0e0f;fill-opacity:1;fill-rule:nonzero;stroke:none"
           id="path62618" /></g><g
         id="g62620"
         transform="matrix(2.9640061,0,0,2.9640061,191.11138,185.87876)"
         style="fill:#0f0e0f;fill-opacity:1"><path
           d="M 0,0 C -0.37,-0.258 -0.976,-0.017 -1.35,0.52 -1.72,1.058 -1.72,1.702 -1.341,1.96 -0.967,2.218 -0.37,1.985 0.009,1.453 0.378,0.907 0.378,0.263 0,0"
           style="fill:#0f0e0f;fill-opacity:1;fill-rule:nonzero;stroke:none"
           id="path62622" /></g><g
         id="g62624"
         transform="matrix(2.9640061,0,0,2.9640061,200.77908,175.91852)"><path
           d="M 0,0 C -0.331,-0.365 -1.036,-0.267 -1.552,0.231 -2.08,0.718 -2.227,1.409 -1.896,1.774 -1.56,2.14 -0.851,2.037 -0.331,1.543 0.193,1.057 0.352,0.361 0,0"
           style="fill:#0f0e0f;fill-opacity:1;fill-rule:nonzero;stroke:none"
           id="path62626" /></g><g
         id="g62628"
         transform="matrix(2.9640061,0,0,2.9640061,214.11711,170.13544)"
         style="fill:#0f0e0f;fill-opacity:1"><path
           d="m 0,0 c -0.147,-0.473 -0.825,-0.687 -1.509,-0.486 -0.683,0.207 -1.13,0.76 -0.992,1.238 0.142,0.477 0.824,0.7 1.513,0.485 C -0.306,1.031 0.142,0.481 0,0"
           style="fill:#0f0e0f;fill-opacity:1;fill-rule:nonzero;stroke:none"
           id="path62630" /></g><g
         id="g62632"
         transform="matrix(2.9640061,0,0,2.9640061,228.76641,169.06425)"
         style="fill:#0f0e0f;fill-opacity:1"><path
           d="m 0,0 c 0.017,-0.498 -0.563,-0.911 -1.281,-0.92 -0.722,-0.017 -1.307,0.387 -1.315,0.877 0,0.503 0.568,0.911 1.289,0.924 C -0.589,0.895 0,0.494 0,0"
           style="fill:#0f0e0f;fill-opacity:1;fill-rule:nonzero;stroke:none"
           id="path62634" /></g><g
         id="g62636"
         transform="matrix(2.9640061,0,0,2.9640061,242.39669,171.38299)"
         style="fill:#0f0e0f;fill-opacity:1"><path
           d="m 0,0 c 0.086,-0.485 -0.413,-0.984 -1.126,-1.117 -0.701,-0.129 -1.35,0.172 -1.439,0.653 -0.087,0.498 0.42,0.997 1.121,1.126 C -0.73,0.786 -0.091,0.494 0,0"
           style="fill:#0f0e0f;fill-opacity:1;fill-rule:nonzero;stroke:none"
           id="path62638" /></g></g></g></svg>
