<?xml version="1.0" encoding="UTF-8" standalone="no"?>
<!-- Created with Inkscape (http://www.inkscape.org/) -->

<svg
   width="75mm"
   height="75mm"
   viewBox="0 0 75 75"
   version="1.1"
   id="svg5"
   inkscape:version="1.1 (c68e22c387, 2021-05-23)"
   sodipodi:docname="icon-clipboardl.svg"
   xmlns:inkscape="http://www.inkscape.org/namespaces/inkscape"
   xmlns:sodipodi="http://sodipodi.sourceforge.net/DTD/sodipodi-0.dtd"
   xmlns="http://www.w3.org/2000/svg"
   xmlns:svg="http://www.w3.org/2000/svg">
  <sodipodi:namedview
     id="namedview7"
     pagecolor="#ffffff"
     bordercolor="#666666"
     borderopacity="1.0"
     inkscape:pageshadow="2"
     inkscape:pageopacity="0.0"
     inkscape:pagecheckerboard="0"
     inkscape:document-units="mm"
     showgrid="false"
     inkscape:zoom="1.5785915"
     inkscape:cx="173.25572"
     inkscape:cy="155.51839"
     inkscape:window-width="1920"
     inkscape:window-height="1009"
     inkscape:window-x="-8"
     inkscape:window-y="-8"
     inkscape:window-maximized="1"
     inkscape:current-layer="layer1" />
  <defs
     id="defs2">
    <rect
       x="301.01044"
       y="419.29843"
       width="192.16629"
       height="164.36121"
       id="rect32420" />
    <rect
       x="300.5625"
       y="413.02734"
       width="192.61423"
       height="161.22568"
       id="rect7850" />
  </defs>
  <g
     inkscape:label="Calque 1"
     inkscape:groupmode="layer"
     id="layer1">
    <path
       id="path2692-5-9-1"
       style="fill:#000000;fill-opacity:1;stroke:none;stroke-width:7.62746;stroke-linecap:round;paint-order:fill markers stroke"
       d="M 177.56055 100.87891 L 96.066406 147.92969 L 177.56055 194.98047 L 177.56055 160.53125 L 218.52344 160.53125 L 218.52344 135.32812 L 177.56055 135.32812 L 177.56055 100.87891 z "
       transform="scale(0.26458333)" />
    <path
       id="path2692"
       style="fill:#000000;fill-opacity:1;stroke:none;stroke-width:8.8074;stroke-linecap:round;paint-order:fill markers stroke"
       d="m 135.73242,47.244141 c -6.00365,0 -12.00712,1.527768 -16.60742,4.582031 l -11.76758,7.8125 H 77.541016 64.941406 v 163.826168 8.35352 4.75 h 83.529294 58.05274 v -4.75 -8.35352 -50.33398 h -12.59766 v 50.33398 H 77.541016 V 72.394531 h 16.603515 83.175779 16.60547 v 50.333989 h 12.59766 V 59.638672 h -12.59766 -29.8164 l -11.76954,-7.814453 c -4.60031,-3.054263 -10.60379,-4.580078 -16.60742,-4.580078 z m 0,5.863281 c 3.73006,5.8e-5 6.75385,3.02385 6.75391,6.753906 -6e-5,3.730056 -3.02385,6.753848 -6.75391,6.753906 -3.73005,-6.4e-5 -6.75384,-3.023854 -6.7539,-6.753906 6e-5,-3.730052 3.02385,-6.753842 6.7539,-6.753906 z"
       transform="scale(0.26458333)"
       sodipodi:nodetypes="scccccccccccccccccccccccccsccccc" />
    <rect
       style="opacity:1;fill:#000000;fill-opacity:1;stroke:none;stroke-width:0.830473;stroke-linecap:round;stroke-linejoin:round;stroke-miterlimit:4;stroke-dasharray:none;stroke-opacity:1;paint-order:fill markers stroke"
       id="rect57992"
       width="21.095692"
       height="3.3331308"
       x="23.849192"
       y="22.487516"
       ry="1.6665654" />
    <rect
       style="fill:#000000;fill-opacity:1;stroke:none;stroke-width:0.530007;stroke-linecap:round;stroke-linejoin:round;stroke-miterlimit:4;stroke-dasharray:none;stroke-opacity:1;paint-order:fill markers stroke"
       id="rect57992-3"
       width="8.5922318"
       height="3.3331308"
       x="23.849192"
       y="29.153778"
       ry="1.6665654" />
    <rect
       style="fill:#000000;fill-opacity:1;stroke:none;stroke-width:0.433306;stroke-linecap:round;stroke-linejoin:round;stroke-miterlimit:4;stroke-dasharray:none;stroke-opacity:1;paint-order:fill markers stroke"
       id="rect57992-3-3"
       width="5.742909"
       height="3.3331308"
       x="23.849192"
       y="52.485695"
       ry="1.6665654" />
    <rect
       style="fill:#000000;fill-opacity:1;stroke:none;stroke-width:0.730986;stroke-linecap:round;stroke-linejoin:round;stroke-miterlimit:4;stroke-dasharray:none;stroke-opacity:1;paint-order:fill markers stroke"
       id="rect57992-3-3-1"
       width="16.344067"
       height="3.3331308"
       x="32.925232"
       y="52.485695"
       ry="1.6665654" />
    <rect
       style="fill:#000000;fill-opacity:1;stroke:none;stroke-width:0.600301;stroke-linecap:round;stroke-linejoin:round;stroke-miterlimit:4;stroke-dasharray:none;stroke-opacity:1;paint-order:fill markers stroke"
       id="rect57992-3-9"
       width="11.022536"
       height="3.3331308"
       x="23.849192"
       y="45.819431"
       ry="1.6665654" />
  </g>
</svg>
