<?xml version="1.0" encoding="UTF-8" standalone="no"?>
<!-- Created with Inkscape (http://www.inkscape.org/) -->

<svg
   width="512"
   height="512"
   viewBox="0 0 512 512"
   version="1.1"
   id="svg5"
   inkscape:version="1.1 (c68e22c387, 2021-05-23)"
   sodipodi:docname="trash.svg"
   xmlns:inkscape="http://www.inkscape.org/namespaces/inkscape"
   xmlns:sodipodi="http://sodipodi.sourceforge.net/DTD/sodipodi-0.dtd"
   xmlns="http://www.w3.org/2000/svg"
   xmlns:svg="http://www.w3.org/2000/svg">
  <sodipodi:namedview
     id="namedview7"
     pagecolor="#ffffff"
     bordercolor="#666666"
     borderopacity="1.0"
     inkscape:pageshadow="2"
     inkscape:pageopacity="0.0"
     inkscape:pagecheckerboard="0"
     inkscape:document-units="px"
     showgrid="true"
     units="px"
     inkscape:zoom="1.4142136"
     inkscape:cx="196.22213"
     inkscape:cy="244.30539"
     inkscape:window-width="1920"
     inkscape:window-height="1009"
     inkscape:window-x="-8"
     inkscape:window-y="-8"
     inkscape:window-maximized="1"
     inkscape:current-layer="layer1">
    <inkscape:grid
       type="xygrid"
       id="grid828"
       spacingx="8"
       spacingy="8" />
  </sodipodi:namedview>
  <defs
     id="defs2" />
  <g
     inkscape:label="Calque 1"
     inkscape:groupmode="layer"
     id="layer1">
    <path
       id="rect954"
       style="stroke-width:0.00215882;stroke-linecap:round"
       d="m 123.55125,164.79271 c -12.52237,0 -18.48978,10.7763 -22.60364,22.60364 l -7.999996,23.00001 c -20.211539,0 -36.482919,16.27138 -36.482919,36.48291 0,20.21154 16.27138,36.48292 36.482919,36.48292 l 7.999996,205.41458 c 0.48732,12.51288 10.08127,22.60364 22.60364,22.60364 h 264.89972 c 12.52236,0 22.11632,-10.09076 22.60364,-22.60364 l 8,-205.41458 c 20.2105,-10e-4 36.48069,-16.27214 36.48069,-36.48292 0,-20.21078 -16.27019,-36.48171 -36.48069,-36.48291 l -8,-23.00001 c -4.11386,-11.82734 -10.08128,-22.60364 -22.60364,-22.60364 z m 67.95567,72.31785 c 7.00259,0 14.00534,2.67124 19.34814,8.01404 L 256,290.26953 301.14494,245.1246 c 10.68559,-10.68559 28.01069,-10.68559 38.69629,0 10.68559,10.6856 10.68559,28.0107 0,38.69629 l -45.14493,45.14494 45.14493,45.14494 c 10.68559,10.68559 10.68559,28.01069 0,38.69629 -10.6856,10.68559 -28.0107,10.68559 -38.69629,0 L 256,367.66213 210.85506,412.80706 c -10.6856,10.68559 -28.01069,10.68559 -38.69629,0 -10.68559,-10.6856 -10.68559,-28.0107 0,-38.69629 l 45.14493,-45.14494 -45.14493,-45.14494 c -10.68559,-10.68559 -10.68559,-28.01069 0,-38.69629 5.3428,-5.3428 12.34555,-8.01404 19.34815,-8.01404 z"
       sodipodi:nodetypes="sscscsssscscssssscssscssscssscsss" />
    <path
       id="path1539"
       style="fill:#000000;stroke:none;stroke-width:0.0023208;stroke-linecap:round"
       d="m 228.93997,0 21.93592,27.455993 c 65.0717,-7.054441 143.04536,1.790651 155.87425,30.009836 1.03802,2.060739 1.86165,4.270132 2.36729,6.637185 3.16669,14.824197 -6.21828,29.30783 -21.04248,32.474487 L 89.432231,160.3719 C 74.607976,163.53829 60.124416,154.15361 56.957746,139.32941 50.056816,106.98079 116.75378,63.436012 184.47698,41.569174 l 8.78501,-33.9478419 z"
       sodipodi:nodetypes="cccssscccc" />
  </g>
</svg>
