<?xml version="1.0" encoding="utf-8"?>
<!-- Generator: Adobe Illustrator 23.0.1, SVG Export Plug-In . SVG Version: 6.00 Build 0)  -->
<svg version="1.1" id="Layer_1" xmlns="http://www.w3.org/2000/svg" xmlns:xlink="http://www.w3.org/1999/xlink" x="0px" y="0px"
	 viewBox="0 0 317.92 102.31" width="133" height="43" style="enable-background:new 0 0 317.92 102.31;" xml:space="preserve">
<style type="text/css">
	.st0{fill:#4D4D4F;}
	.st1{fill:#00AAE7;}
	.st2{fill:#8A8C8E;}
</style>
<g>
	<g>
		<g>
			<g>
				<path class="st0" d="M28.23,76.86h2.96l-3.56,17.89h-2.96L28.23,76.86z"/>
				<path class="st0" d="M34.79,81.32h2.38l-0.14,1.89h0.11c1.42-1.2,2.93-2.22,4.62-2.22c2.24,0,3.17,1.23,3.17,3.39
					c0,0.63-0.06,1.18-0.22,1.89l-1.7,8.48H40.1l1.64-8.1c0.11-0.63,0.22-1.01,0.22-1.42c0-1.15-0.55-1.72-1.7-1.72
					c-0.93,0-1.97,0.63-3.39,2.08l-1.81,9.16h-2.95L34.79,81.32z"/>
				<path class="st0" d="M48.55,81.46l1.78-0.14l0.3-1.56c0.55-2.74,2.05-4.65,4.73-4.65c1.01,0,1.89,0.28,2.65,0.68l-0.98,2.08
					c-0.33-0.19-0.85-0.41-1.4-0.41c-1.09,0-1.78,0.68-2.08,2.22l-0.33,1.64h2.54l-0.46,2.32h-2.57l-2.19,11.11h-2.93l2.22-11.11
					h-1.72L48.55,81.46z"/>
				<path class="st0" d="M55.8,89.61c0-5.14,3.72-8.62,7.39-8.62c3.04,0,5.03,2.11,5.03,5.47c0,5.12-3.72,8.62-7.41,8.62
					C57.79,95.08,55.8,92.95,55.8,89.61z M65.23,86.54c0-2.02-0.82-3.17-2.35-3.17c-2.13,0-4.13,2.71-4.13,6.13
					c0,2.02,0.82,3.2,2.38,3.2C63.26,92.7,65.23,89.99,65.23,86.54z"/>
				<path class="st0" d="M72.75,81.32h2.38l-0.25,2.6H75c1.07-1.67,2.54-2.93,4.16-2.93c0.58,0,0.98,0.08,1.34,0.25l-0.98,2.57
					c-0.33-0.16-0.79-0.22-1.26-0.22c-1.26,0-2.54,0.99-3.64,3.04l-1.59,8.12h-2.96L72.75,81.32z"/>
				<path class="st0" d="M82.96,81.32h2.38l-0.14,1.89h0.11c1.37-1.2,2.93-2.22,4.38-2.22c2.08,0,2.84,1.04,3.12,2.49
					c1.59-1.5,3.2-2.49,4.65-2.49c2.22,0,3.17,1.23,3.17,3.39c0,0.63-0.08,1.18-0.22,1.89l-1.7,8.48h-2.95l1.64-8.1
					c0.14-0.63,0.22-1.01,0.22-1.42c0-1.15-0.55-1.72-1.64-1.72c-0.68,0-1.83,0.63-3.2,2.08l-1.83,9.16h-2.93l1.62-8.1
					c0.14-0.63,0.22-1.01,0.22-1.42c0-1.15-0.55-1.72-1.62-1.72c-0.71,0-1.86,0.63-3.2,2.08l-1.81,9.16h-2.95L82.96,81.32z"/>
			</g>
			<g>
				<path class="st1" d="M112.25,76.86h2.96l-3.56,17.89h-2.96L112.25,76.86z"/>
				<path class="st1" d="M122.89,79.38h-4.95l0.49-2.52h12.86l-0.49,2.52h-4.95l-3.06,15.37h-2.95L122.89,79.38z"/>
				<path class="st1" d="M127.64,93.38c0-1.15,0.96-2.35,2.27-2.35c0.99,0,1.59,0.74,1.59,1.72c0,1.18-0.9,2.33-2.24,2.33
					C128.27,95.08,127.64,94.37,127.64,93.38z"/>
			</g>
			<g>
				<path class="st0" d="M147.56,79.38h-4.95l0.49-2.52h12.86l-0.49,2.52h-4.95l-3.06,15.37h-2.95L147.56,79.38z"/>
				<path class="st0" d="M155.84,81.32h2.38l-0.25,2.6h0.11c1.07-1.67,2.54-2.93,4.16-2.93c0.58,0,0.99,0.08,1.34,0.25l-0.99,2.57
					c-0.33-0.16-0.79-0.22-1.26-0.22c-1.26,0-2.54,0.99-3.64,3.04l-1.59,8.12h-2.95L155.84,81.32z"/>
				<path class="st0" d="M163.45,90.18c0-5.14,3.5-9.19,7.22-9.19c1.31,0,2.49,0.74,3.09,1.89h0.05l0.58-1.56h2.35l-2.68,13.43
					h-2.41l0.14-1.86h-0.08c-1.26,1.31-2.9,2.19-4.43,2.19C164.92,95.08,163.45,93.33,163.45,90.18z M172.01,90.4l1.09-5.36
					c-0.6-1.15-1.45-1.64-2.27-1.64c-2.27,0-4.35,2.93-4.35,6.37c0,1.97,0.77,2.9,2,2.9C169.63,92.67,170.91,92.02,172.01,90.4z"/>
				<path class="st0" d="M180.92,81.32h2.38l-0.14,1.89h0.11c1.42-1.2,2.93-2.22,4.62-2.22c2.24,0,3.17,1.23,3.17,3.39
					c0,0.63-0.05,1.18-0.22,1.89l-1.7,8.48h-2.93l1.64-8.1c0.11-0.63,0.22-1.01,0.22-1.42c0-1.15-0.55-1.72-1.69-1.72
					c-0.93,0-1.97,0.63-3.39,2.08l-1.8,9.16h-2.96L180.92,81.32z"/>
				<path class="st0" d="M192.49,92.51l1.75-1.42c0.88,1.15,1.97,1.81,3.17,1.81c1.26,0,2.35-0.77,2.35-1.75
					c0-0.85-0.71-1.31-2.41-2.24c-1.78-0.98-2.87-2.1-2.87-3.72c0-2.43,2.22-4.18,4.9-4.18c1.75,0,3.17,0.82,4.21,1.92l-1.64,1.56
					c-0.68-0.68-1.5-1.26-2.57-1.26c-1.23,0-2.13,0.77-2.13,1.7c0,0.99,1.15,1.45,2.3,2.11c2,1.07,2.98,2.13,2.98,3.77
					c0,2.6-2.24,4.3-5.33,4.3C195.5,95.08,193.5,94.04,192.49,92.51z"/>
				<path class="st0" d="M206.25,81.46l1.78-0.14l0.3-1.56c0.55-2.74,2.05-4.65,4.73-4.65c1.01,0,1.89,0.28,2.65,0.68l-0.99,2.08
					c-0.33-0.19-0.85-0.41-1.39-0.41c-1.09,0-1.78,0.68-2.08,2.22l-0.33,1.64h2.54L213,83.65h-2.57l-2.19,11.11h-2.93l2.22-11.11
					h-1.72L206.25,81.46z"/>
				<path class="st0" d="M213.5,89.61c0-5.14,3.72-8.62,7.39-8.62c3.04,0,5.03,2.11,5.03,5.47c0,5.12-3.72,8.62-7.41,8.62
					C215.49,95.08,213.5,92.95,213.5,89.61z M222.93,86.54c0-2.02-0.82-3.17-2.35-3.17c-2.13,0-4.13,2.71-4.13,6.13
					c0,2.02,0.82,3.2,2.38,3.2C220.96,92.7,222.93,89.99,222.93,86.54z"/>
				<path class="st0" d="M230.46,81.32h2.38l-0.25,2.6h0.11c1.07-1.67,2.54-2.93,4.16-2.93c0.58,0,0.98,0.08,1.34,0.25l-0.98,2.57
					c-0.33-0.16-0.79-0.22-1.26-0.22c-1.26,0-2.54,0.99-3.64,3.04l-1.59,8.12h-2.96L230.46,81.32z"/>
				<path class="st0" d="M240.66,81.32h2.38l-0.14,1.89h0.11c1.37-1.2,2.93-2.22,4.38-2.22c2.08,0,2.84,1.04,3.12,2.49
					c1.59-1.5,3.2-2.49,4.65-2.49c2.22,0,3.17,1.23,3.17,3.39c0,0.63-0.08,1.18-0.22,1.89l-1.69,8.48h-2.96l1.64-8.1
					c0.14-0.63,0.22-1.01,0.22-1.42c0-1.15-0.55-1.72-1.64-1.72c-0.68,0-1.83,0.63-3.2,2.08l-1.83,9.16h-2.93l1.61-8.1
					c0.14-0.63,0.22-1.01,0.22-1.42c0-1.15-0.55-1.72-1.61-1.72c-0.71,0-1.86,0.63-3.2,2.08l-1.8,9.16h-2.96L240.66,81.32z"/>
			</g>
			<g>
				<path class="st1" d="M269.89,76.86h2.96l-3.56,17.89h-2.96L269.89,76.86z"/>
				<path class="st1" d="M280.53,79.38h-4.95l0.49-2.52h12.86l-0.49,2.52h-4.95l-3.06,15.37h-2.96L280.53,79.38z"/>
				<path class="st1" d="M285.29,93.38c0-1.15,0.96-2.35,2.27-2.35c0.98,0,1.59,0.74,1.59,1.72c0,1.18-0.9,2.33-2.24,2.33
					C285.92,95.08,285.29,94.37,285.29,93.38z"/>
			</g>
		</g>
		<path class="st0" d="M294.6,77.03v0.26h0.78v2.04h0.3v-2.04h0.81v-0.26H294.6z M298.85,77.03l-0.74,1.45l-0.73-1.45h-0.46v2.3h0.3
			v-2.01l0.82,1.59h0.12l0.84-1.59v2.01h0.29v-2.3H298.85z"/>
	</g>
	<g>
		<path class="st1" d="M116.83,54.31l-25.55-0.06c-2.09,0-3.88-0.15-5.37-0.44c-1.48-0.29-2.71-0.8-3.67-1.53
			c-0.96-0.73-1.67-1.75-2.14-3.05c-0.47-1.31-0.7-3.01-0.7-5.11v-24c0-2.09,0.23-3.81,0.7-5.15c0.47-1.34,1.18-2.37,2.14-3.1
			c0.96-0.73,2.18-1.24,3.67-1.53c1.48-0.29,3.27-0.44,5.37-0.44h14.4c2.09,0,3.85,0.15,5.28,0.44c1.43,0.29,2.57,0.8,3.45,1.53
			c0.87,0.73,1.5,1.76,1.88,3.1c0.38,1.34,0.57,3.05,0.57,5.15v14.4H85v10.3c0,1.69,0.36,2.84,1.09,3.45
			c0.73,0.61,2.23,0.92,4.49,0.92h26.24V54.31z M111.27,19.07c0-1.63-0.31-2.75-0.92-3.36c-0.61-0.61-2.08-0.92-4.41-0.92H90.76
			c-1.16,0-2.12,0.07-2.88,0.22c-0.76,0.15-1.35,0.38-1.79,0.7c-0.44,0.32-0.73,0.76-0.87,1.31C85.07,17.57,85,18.28,85,19.15v10.39
			h26.27V19.07z"/>
		<path class="st0" d="M230.23,54.31l-25.6-0.06c-2.09,0-3.88-0.15-5.37-0.44c-1.48-0.29-2.71-0.8-3.67-1.53
			c-0.96-0.73-1.67-1.75-2.14-3.05c-0.47-1.31-0.7-3.01-0.7-5.11v-24c0-2.09,0.23-3.81,0.7-5.15c0.47-1.34,1.18-2.37,2.14-3.1
			c0.96-0.73,2.18-1.24,3.67-1.53c1.48-0.29,3.27-0.44,5.37-0.44h14.4c2.09,0,3.85,0.15,5.28,0.44c1.43,0.29,2.57,0.8,3.45,1.53
			c0.87,0.73,1.5,1.76,1.88,3.1c0.38,1.34,0.57,3.05,0.57,5.15v14.4h-31.86v10.3c0,1.69,0.36,2.84,1.09,3.45
			c0.73,0.61,2.23,0.92,4.49,0.92h26.3V54.31z M224.61,19.07c0-1.63-0.31-2.75-0.92-3.36c-0.61-0.61-2.08-0.92-4.41-0.92H204.1
			c-1.16,0-2.12,0.07-2.88,0.22c-0.76,0.15-1.35,0.38-1.79,0.7c-0.44,0.32-0.73,0.76-0.87,1.31c-0.15,0.55-0.22,1.27-0.22,2.14
			v10.39h26.27V19.07z"/>
		<path class="st1" d="M71.22,54.31c0,0-11.25,0.06-13.23-0.23c-1.42-0.21-2.53-0.78-3.36-1.55c-0.82-0.76-1.4-1.81-1.72-3.13
			c-0.32-1.32-0.49-3.02-0.49-5.08V9.9h5.65v35.04c0,0.88,0.06,1.6,0.18,2.16c0.12,0.56,0.37,1,0.75,1.32
			c0.38,0.32,0.92,0.61,1.63,0.71c1.47,0.19,10.58,0.13,10.58,0.13V54.31z"/>
		<path class="st0" d="M264.69,14.91l-10.03,0.01c-1.18,0-2.09,0.01-2.8,0.16c-0.71,0.15-1.25,0.38-1.63,0.71
			c-0.38,0.32-0.63,0.76-0.75,1.32c-0.12,0.56-0.18,1.28-0.18,2.16v35.04h-5.65V19.89c0-2.06,0.16-3.75,0.49-5.08
			c0.32-1.32,0.9-2.37,1.72-3.13c0.82-0.77,1.93-1.34,3.36-1.55c1.98-0.29,13.55-0.23,13.55-0.23h1.92V14.91z"/>
		<path class="st1" d="M42.87,14.76c0,0-22.96,0-23.85,0c-3.4,0-4.23,1.03-4.23,4c0,2.19-0.01,10.56-0.01,10.56l21.74-0.08v5.25
			H14.78v19.8H8.3c0,0,0-29.47,0-37.81c0-3.86,1.05-6.63,7.45-6.63c4.65,0,27.12,0,27.12,0V14.76z"/>
		<g>
			<g>
				<path class="st0" d="M301.16,10.03L275.5,9.89l-0.09,5.17c0,0,22.17,0.13,24.49,0.18c2.32,0.05,3.96,1.98,3.96,4.33
					c0,2.35,0,9.86,0,9.86h-15.71h-8.79c0,0-3.86,0-5.9,2.14c-2.02,2.12-1.95,5.2-1.95,5.2s-0.23,6.96-0.08,8.71
					c0.13,1.48-0.08,5.45,4.07,7.59c2.4,1.24,8.21,1.26,8.21,1.26h26.07c0,0,0-30.6,0-33.03S310.28,10.03,301.16,10.03z
					 M303.89,49.28h-21.33c-2.4,0-3.96-0.38-4.69-1.14c-0.73-0.76-1.1-1.99-1.1-3.69v-6.05c0-0.88,0.06-1.26,0.18-1.81
					c0.12-0.56,0.36-0.99,0.75-1.32c0.38-0.32,0.92-0.56,1.62-0.7c0.7-0.14,1.64-0.22,2.81-0.22h21.76V49.28z"/>
			</g>
		</g>
		<g>
			<g>
				<polygon class="st2" points="183.58,9.86 172.64,9.86 158.62,22.87 164.16,28.01 				"/>
				<polygon class="st0" points="164.06,32.68 158.62,37.62 177.04,54.32 186.71,54.32 				"/>
			</g>
			<g>
				<polygon class="st1" points="139.64,9.86 128.7,9.86 149.29,29.1 160.38,29.1 				"/>
				<polygon class="st1" points="125.57,54.32 135.24,54.32 160.28,31.62 149.33,31.62 				"/>
			</g>
		</g>
	</g>
</g>
</svg>
